<?xml version="1.0" encoding="UTF-8"?>
<svg width="66px" height="17px" viewBox="0 0 66 17" version="1.1" xmlns="http://www.w3.org/2000/svg" xmlns:xlink="http://www.w3.org/1999/xlink">
    <!-- Generator: Sketch 52.2 (67145) - http://www.bohemiancoding.com/sketch -->
    <title>Group 7</title>
    <desc>Created with Sketch.</desc>
    <defs>
        <path d="M0.125981763,5.32317442 C0.125981763,8.40432558 2.49335562,10.7076279 5.65132523,10.7076279 L5.65132523,10.7076279 C8.73045593,10.7076279 11.1616231,8.3740814 11.1616231,5.38386047 L11.1616231,5.38386047 C11.1616231,2.41123256 8.74690578,0.0768953488 5.65132523,0.0768953488 L5.65132523,0.0768953488 C2.60088146,0.0768953488 0.125981763,2.42526744 0.125981763,5.32317442" id="path-1"></path>
        <polygon id="path-3" points="0 0.0379534884 65.9715137 0.0379534884 65.9715137 17 0 17"></polygon>
        <linearGradient x1="31.3848139%" y1="17.1228142%" x2="84.9734046%" y2="100%" id="linearGradient-5">
            <stop stop-color="#E75C09" offset="0%"></stop>
            <stop stop-color="#FBA000" offset="100%"></stop>
        </linearGradient>
        <circle id="path-6" cx="34.5" cy="5.5" r="5.5"></circle>
        <filter x="-18.2%" y="-18.2%" width="136.4%" height="136.4%" filterUnits="objectBoundingBox" id="filter-7">
            <feGaussianBlur stdDeviation="1" in="SourceAlpha" result="shadowBlurInner1"></feGaussianBlur>
            <feOffset dx="2" dy="2" in="shadowBlurInner1" result="shadowOffsetInner1"></feOffset>
            <feComposite in="shadowOffsetInner1" in2="SourceAlpha" operator="arithmetic" k2="-1" k3="1" result="shadowInnerInner1"></feComposite>
            <feColorMatrix values="0 0 0 0 0.674509804   0 0 0 0 0.301960784   0 0 0 0 0.133333333  0 0 0 0.833701313 0" type="matrix" in="shadowInnerInner1"></feColorMatrix>
        </filter>
    </defs>
    <g id="Desktop-/-Tablet" stroke="none" stroke-width="1" fill="none" fill-rule="evenodd">
        <g id="step-#3-(detect-visa)" transform="translate(-447.000000, -371.000000)">
            <g id="container" transform="translate(162.000000, 95.000000)">
                <g id="Group-7" transform="translate(285.000000, 267.000000)">
                    <g id="discover-card" transform="translate(0.000000, 9.000000)">
                        <g id="Visa-icon">
                            <g id="discover_logo">
                                <g id="Group-3" transform="translate(28.686930, 0.000000)">
                                    <mask id="mask-2" fill="white">
                                        <use xlink:href="#path-1"></use>
                                    </mask>
                                    <g id="Clip-2"></g>
                                    <path d="M0.125981763,5.32317442 C0.125981763,8.40432558 2.49335562,10.7076279 5.65132523,10.7076279 L5.65132523,10.7076279 C8.73045593,10.7076279 11.1616231,8.3740814 11.1616231,5.38386047 L11.1616231,5.38386047 C11.1616231,2.41123256 8.74690578,0.0768953488 5.65132523,0.0768953488 L5.65132523,0.0768953488 C2.60088146,0.0768953488 0.125981763,2.42526744 0.125981763,5.32317442" id="Fill-1" mask="url(#mask-2)"></path>
                                </g>
                                <g id="Group-31">
                                    <path d="M5.33275988,7.93583721 C4.69402432,8.50375581 3.87193313,8.74906977 2.56517325,8.74906977 L2.02212766,8.74906977 L2.02212766,1.99710465 L2.56517325,1.99710465 C3.87193313,1.99710465 4.66272948,2.227 5.33275988,2.82338372 C6.03187842,3.4355814 6.44854103,4.38382558 6.44854103,5.36330233 C6.44854103,6.34436047 6.03187842,7.32601163 5.33275988,7.93583721 M2.97060182,0.26844186 L0,0.26844186 L0,10.4773372 L2.95495441,10.4773372 C4.52270517,10.4773372 5.65674164,10.1112442 6.65135562,9.29939535 C7.83153191,8.33494186 8.53145289,6.88084884 8.53145289,5.37793023 C8.53145289,2.3637907 6.24632827,0.26844186 2.97060182,0.26844186" id="Fill-4" fill="#001722"></path>
                                    <mask id="mask-4" fill="white">
                                        <use xlink:href="#path-3"></use>
                                    </mask>
                                    <g id="Clip-7"></g>
                                    <polygon id="Fill-6" fill="#001722" mask="url(#mask-4)" points="9.46427964 10.4773372 11.482997 10.4773372 11.482997 0.268244186 9.46427964 0.268244186"></polygon>
                                    <path d="M16.4252736,4.18447093 C15.2117964,3.74148256 14.8549149,3.44931977 14.8549149,2.90018023 C14.8549149,2.25675 15.4904407,1.76730814 16.3618815,1.76730814 C16.9677173,1.76730814 17.4650243,2.01202907 17.9948298,2.59200581 L19.0496261,1.23180814 C18.1797903,0.480052326 17.1390365,0.0979476744 16.003997,0.0979476744 C14.1726474,0.0979476744 12.7734073,1.35377326 12.7734073,3.02076163 C12.7734073,4.43037791 13.425383,5.14912209 15.3213283,5.82437791 C16.1141307,6.09855233 16.517152,6.28140116 16.7193647,6.4063314 C17.1233891,6.6666686 17.3262036,7.03276163 17.3262036,7.46131977 C17.3262036,8.28898256 16.6575775,8.90038953 15.7552432,8.90038953 C14.791924,8.90038953 14.0159726,8.42636628 13.5495593,7.53861047 L12.2462097,8.78000581 C13.1764286,10.1251802 14.2952188,10.7241337 15.8346839,10.7241337 C17.9318389,10.7241337 19.4071094,9.34456395 19.4071094,7.37038953 C19.4071094,5.74748256 18.7252432,5.01213372 16.4252736,4.18447093" id="Fill-8" fill="#001722" mask="url(#mask-4)"></path>
                                    <path d="M20.0437587,5.37785116 C20.0437587,8.38131628 22.4370109,10.7075488 25.513935,10.7075488 C26.3837708,10.7075488 27.1294304,10.5383395 28.0470109,10.1111651 L28.0470109,7.76793256 C27.2379593,8.56475814 26.5231933,8.88538605 25.6062146,8.88538605 C23.5714486,8.88538605 22.1256675,7.4307 22.1256675,5.36322326 C22.1256675,3.40486279 23.6165854,1.85825814 25.513935,1.85825814 C26.4756492,1.85825814 27.2070657,2.19489767 28.0470109,3.00615349 L28.0470109,0.66292093 C27.1613271,0.220327907 26.4299106,0.038072093 25.5600748,0.038072093 C22.4987982,0.038072093 20.0437587,2.41135116 20.0437587,5.37785116" id="Fill-9" fill="#001722" mask="url(#mask-4)"></path>
                                    <polygon id="Fill-10" fill="#001722" mask="url(#mask-4)" points="44.4210292 7.12612326 41.6554486 0.268402326 39.4491629 0.268402326 43.8474912 10.7380302 44.9341842 10.7380302 49.4093453 0.268402326 47.2193088 0.268402326"></polygon>
                                    <polygon id="Fill-11" fill="#001722" mask="url(#mask-4)" points="50.3278085 10.4773372 56.0599787 10.4773372 56.0599787 8.74906977 52.3473283 8.74906977 52.3473283 5.9917093 55.9179483 5.9917093 55.9179483 4.26304651 52.3473283 4.26304651 52.3473283 1.99710465 56.0599787 1.99710465 56.0599787 0.26844186 50.3278085 0.26844186"></polygon>
                                    <path d="M60.0040103,4.96726163 L59.4160286,4.96726163 L59.4160286,1.87365698 L60.0363082,1.87365698 C61.2975301,1.87365698 61.9808006,2.39571512 61.9808006,3.38922674 C61.9808006,4.41436628 61.2975301,4.96726163 60.0040103,4.96726163 M64.0592991,3.28129651 C64.0592991,1.36879651 62.7250559,0.268343023 60.3931897,0.268343023 L57.3943021,0.268343023 L57.3943021,10.4772384 L59.4160286,10.4772384 L59.4160286,6.37430814 L59.6806304,6.37430814 L62.4757003,10.4772384 L64.9616334,10.4772384 L61.6969404,6.17702907 C63.2217611,5.86984302 64.0592991,4.84371512 64.0592991,3.28129651" id="Fill-12" fill="#001722" mask="url(#mask-4)"></path>
                                    <path d="M65.1036438,1.1510186 L65.063121,1.1510186 L65.063121,0.917169767 L65.1056498,0.917169767 C65.2131757,0.917169767 65.267741,0.955716279 65.267741,1.0320186 C65.267741,1.11108837 65.210969,1.1510186 65.1036438,1.1510186 M65.4845982,1.02865814 C65.4845982,0.849762791 65.3632304,0.752704651 65.1409568,0.752704651 L64.8470663,0.752704651 L64.8470663,1.65192558 L65.063121,1.65192558 L65.063121,1.30223953 L65.3184948,1.65192558 L65.5893155,1.65192558 L65.2859964,1.28029767 C65.4137836,1.2468907 65.4845982,1.15398372 65.4845982,1.02865814" id="Fill-13" fill="#231F20" mask="url(#mask-4)"></path>
                                    <path d="M65.183566,1.84481628 C64.8296936,1.84481628 64.5448304,1.55759535 64.5448304,1.20197907 C64.5448304,0.842804651 64.8278881,0.557560465 65.183566,0.557560465 C65.5274079,0.557560465 65.8110675,0.848339535 65.8110675,1.20197907 C65.8110675,1.55502558 65.5274079,1.84481628 65.183566,1.84481628 M65.184569,0.414246512 C64.7426298,0.414246512 64.3877544,0.764327907 64.3877544,1.19980465 C64.3877544,1.63547907 64.7446359,1.98556047 65.184569,1.98556047 C65.6176815,1.98556047 65.9715538,1.63192093 65.9715538,1.19980465 C65.9715538,0.769269767 65.6176815,0.414246512 65.184569,0.414246512" id="Fill-14" fill="#231F20" mask="url(#mask-4)"></path>
                                    <polygon id="Fill-15" fill="#231F20" mask="url(#mask-4)" points="18.1124061 13.1607081 20.8157982 15.9510802 20.8157982 13.3065919 21.2019684 13.3065919 21.2019684 16.8750105 18.4991781 14.0907663 18.4991781 16.7222081 18.1124061 16.7222081"></polygon>
                                    <path d="M18.1488565,13.2496023 C18.2684188,13.3715674 20.8532517,16.0409628 20.8532517,16.0409628 L20.8532517,13.3405326 L21.1655982,13.3405326 L21.1655982,16.7879744 C21.0458353,16.6642302 18.4642122,14.0007651 18.4642122,14.0007651 L18.4642122,16.6863698 L18.1488565,16.6863698 L18.1488565,13.2496023 Z M18.0764371,13.1606488 L18.0764371,16.7581256 L18.5346255,16.7581256 L18.5346255,14.1786721 C18.6531848,14.3006372 21.2372152,16.9639047 21.2372152,16.9639047 L21.2372152,13.2705558 L20.7792274,13.2705558 L20.7792274,15.8630558 C20.6606681,15.739114 18.0764371,13.0713 18.0764371,13.0713 L18.0764371,13.1606488 Z" id="Fill-16" fill="#231F20" mask="url(#mask-4)"></path>
                                    <polygon id="Fill-17" fill="#231F20" mask="url(#mask-4)" points="23.074603 13.3065523 24.8706456 13.3065523 24.8706456 13.6592035 23.4599708 13.6592035 23.4599708 14.6750523 24.829521 14.6750523 24.829521 15.0279012 23.4599708 15.0279012 23.4599708 16.3685291 24.8706456 16.3685291 24.8706456 16.7221686 23.074603 16.7221686"></polygon>
                                    <path d="M24.8351179,13.3405128 L24.8351179,13.6231872 L23.4232395,13.6231872 L23.4232395,14.7101988 L24.7931909,14.7101988 L24.7931909,14.9918849 L23.4232395,14.9918849 L23.4232395,16.4036756 L24.8351179,16.4036756 L24.8351179,16.68635 L23.1100906,16.68635 L23.1100906,13.3405128 L24.8351179,13.3405128 Z M24.8706255,13.270536 L23.0376711,13.270536 L23.0376711,16.7583035 L24.9075374,16.7583035 L24.9075374,16.3325128 L23.4968626,16.3325128 L23.4968626,15.0618616 L24.8656103,15.0618616 L24.8656103,14.6402221 L23.4968626,14.6402221 L23.4968626,13.6971174 L24.9075374,13.6971174 L24.9075374,13.270536 L24.8706255,13.270536 Z" id="Fill-18" fill="#231F20" mask="url(#mask-4)"></path>
                                    <polygon id="Fill-19" fill="#231F20" mask="url(#mask-4)" points="27.5983714 16.7222279 27.2115994 16.7222279 27.2115994 13.6592628 26.3756663 13.6592628 26.3756663 13.3066116 28.4439337 13.3066116 28.4439337 13.6592628 27.5983714 13.6592628"></polygon>
                                    <path d="M28.4079647,13.3405128 L28.4079647,13.6231872 L27.5620012,13.6231872 L27.5620012,16.68635 L27.2476486,16.68635 L27.2476486,13.6231872 L26.4117155,13.6231872 L26.4117155,13.3405128 L28.4079647,13.3405128 Z M28.4440742,13.270536 L26.3370894,13.270536 L26.3370894,13.6971174 L27.1752292,13.6971174 L27.1752292,16.7583035 L27.6334176,16.7583035 L27.6334176,13.6971174 L28.479983,13.6971174 L28.479983,13.270536 L28.4440742,13.270536 Z" id="Fill-20" fill="#231F20" mask="url(#mask-4)"></path>
                                    <polygon id="Fill-21" fill="#231F20" mask="url(#mask-4)" points="31.0272219 15.8660802 32.1494225 13.1282895 33.2708207 15.8660802 34.1811793 13.3065919 34.6012523 13.3065919 33.2708207 16.8981384 32.1494225 14.1467081 31.0272219 16.8981384 29.7002006 13.3065919 30.1178663 13.3065919"></polygon>
                                    <path d="M31.0606231,15.879107 C31.0606231,15.879107 32.0865319,13.3775372 32.1495228,13.2255256 C32.2123131,13.3775372 33.2727264,15.9668744 33.2727264,15.9668744 C33.2727264,15.9668744 34.1895046,13.3874209 34.2067568,13.3405721 L34.5481915,13.3405721 C34.5158936,13.4313047 33.3307021,16.6342233 33.2689149,16.7990837 C33.2031155,16.6363977 32.1495228,14.052793 32.1495228,14.052793 C32.1495228,14.052793 31.0941246,16.6363977 31.0281246,16.7990837 C30.9685441,16.6342233 29.7853587,13.4313047 29.7508541,13.3405721 L30.0914863,13.3405721 C30.1077356,13.3874209 31.0253161,15.9668744 31.0253161,15.9668744 L31.0606231,15.879107 Z M32.1170243,13.1156186 C32.1170243,13.1156186 31.0961307,15.6013744 31.0291277,15.7650488 C30.9703495,15.5992 30.1420395,13.2705953 30.1420395,13.2705953 L29.647541,13.2705953 L31.0273222,16.9999209 C31.0273222,16.9999209 32.0865319,14.4005023 32.1495228,14.2435488 C32.2123131,14.4005023 33.271924,16.9999209 33.271924,16.9999209 L34.6515046,13.2705953 L34.156003,13.2705953 C34.156003,13.2705953 33.3274924,15.5992 33.2689149,15.7650488 C33.2009088,15.6013744 32.1495228,13.0341767 32.1495228,13.0341767 L32.1170243,13.1156186 Z" id="Fill-22" fill="#231F20" mask="url(#mask-4)"></path>
                                    <path d="M36.3649769,15.013807 C36.3649769,15.7831558 36.9997003,16.4263884 37.7866851,16.4263884 C38.5732687,16.4263884 39.205986,15.7831558 39.205986,15.013807 C39.205986,14.2387256 38.5814936,13.5992488 37.7866851,13.5992488 C36.991676,13.5992488 36.3649769,14.2387256 36.3649769,15.013807 M39.5933599,15.0179581 C39.5933599,16.000993 38.7738766,16.7810163 37.7866851,16.7810163 C36.7968857,16.7810163 35.9800103,16.000993 35.9800103,15.0179581 C35.9800103,14.0398651 36.7968857,13.247586 37.7866851,13.247586 C38.7738766,13.247586 39.5933599,14.0398651 39.5933599,15.0179581" id="Fill-23" fill="#231F20" mask="url(#mask-4)"></path>
                                    <path d="M36.0143143,15.0178593 C36.0143143,14.0609174 36.8091228,13.2836616 37.7866851,13.2836616 C38.7618401,13.2836616 39.5588553,14.0609174 39.5588553,15.0178593 C39.5588553,15.9708477 38.7618401,16.7451384 37.7866851,16.7451384 C36.8091228,16.7451384 36.0143143,15.9708477 36.0143143,15.0178593 M35.9432991,15.0178593 C35.9432991,16.0089988 36.7706061,16.8161035 37.7866851,16.8161035 C38.8023629,16.8161035 39.6294693,16.0089988 39.6294693,15.0178593 C39.6294693,14.0207895 38.8023629,13.2121035 37.7866851,13.2121035 C36.7706061,13.2121035 35.9432991,14.0207895 35.9432991,15.0178593" id="Fill-24" fill="#231F20" mask="url(#mask-4)"></path>
                                    <path d="M36.401628,15.013807 C36.401628,14.2547372 37.0223088,13.636214 37.7866249,13.636214 C38.550941,13.636214 39.1694152,14.2547372 39.1694152,15.013807 C39.1694152,15.7730744 38.550941,16.392586 37.7866249,16.392586 C37.0223088,16.392586 36.401628,15.7730744 36.401628,15.013807 M36.3286067,15.013807 C36.3286067,15.8151791 36.9835915,16.4625628 37.7866249,16.4625628 C38.5894578,16.4625628 39.2412328,15.8151791 39.2412328,15.013807 C39.2412328,14.214807 38.5894578,13.5652488 37.7866249,13.5652488 C36.9835915,13.5652488 36.3286067,14.214807 36.3286067,15.013807" id="Fill-25" fill="#231F20" mask="url(#mask-4)"></path>
                                    <path d="M41.6532821,14.8870779 L41.773045,14.8870779 C42.208966,14.8870779 42.6511058,14.8060314 42.6511058,14.2756709 C42.6511058,13.715264 42.2324371,13.6591244 41.7688322,13.6591244 L41.6532821,13.6591244 L41.6532821,14.8870779 Z M41.6532821,16.7222872 L41.2679143,16.7222872 L41.2679143,13.3064733 L41.7688322,13.3064733 C42.4258231,13.3064733 43.0362729,13.4794384 43.0362729,14.2485895 C43.0362729,14.7742058 42.702662,15.1458337 42.1684432,15.1907058 L43.2711848,16.7222872 L42.7969477,16.7222872 L41.7507775,15.2217407 L41.6532821,15.2217407 L41.6532821,16.7222872 Z" id="Fill-26" fill="#231F20" mask="url(#mask-4)"></path>
                                    <path d="M41.7688523,13.3405128 C42.608597,13.3405128 43.0007854,13.6291174 43.0007854,14.2486291 C43.0007854,14.7560593 42.6731927,15.11385 42.1652535,15.155757 L42.1012596,15.1616872 C42.1012596,15.1616872 43.1275696,16.5821756 43.2023964,16.68635 L42.7969678,16.68635 L42.7979708,16.68635 C42.7979708,16.660257 41.7790833,15.2018151 41.7790833,15.2018151 L41.6533021,15.1865942 L41.6167915,15.1865942 L41.6167915,16.68635 L41.3036426,16.68635 L41.3036426,13.3405128 L41.7688523,13.3405128 Z M41.2679343,13.270536 L41.2316243,13.270536 L41.2316243,16.7583035 L41.6898128,16.7583035 L41.6898128,15.257757 L41.7493933,15.257757 C41.7493933,15.2836523 42.7684815,16.7420942 42.7684815,16.7420942 L43.2712049,16.7583035 L43.3424207,16.7583035 C43.3424207,16.7583035 42.2840134,15.2905709 42.2290468,15.2116988 C42.7403964,15.1427105 43.072603,14.7742453 43.072603,14.2486291 C43.072603,13.5891872 42.6467125,13.270536 41.7688523,13.270536 L41.2679343,13.270536 Z" id="Fill-27" fill="#231F20" mask="url(#mask-4)"></path>
                                    <path d="M41.7688523,13.697157 C42.2140012,13.697157 42.6144146,13.739064 42.6144146,14.2755523 C42.6144146,14.7819942 42.1897277,14.8499942 41.7728644,14.8499942 L41.6898128,14.8499942 L41.6898128,13.697157 L41.7688523,13.697157 Z M41.6533021,13.6232267 L41.6167915,13.6232267 L41.6167915,14.9219477 L41.7728644,14.9219477 C42.1989556,14.9219477 42.6872353,14.8480174 42.6872353,14.2755523 C42.6872353,13.6732384 42.2129982,13.6232267 41.7688523,13.6232267 L41.6533021,13.6232267 Z" id="Fill-28" fill="#231F20" mask="url(#mask-4)"></path>
                                    <polygon id="Fill-29" fill="#231F20" mask="url(#mask-4)" points="46.7713313 13.3065523 47.2905046 13.3065523 45.6633739 14.8980291 47.3450699 16.7221686 46.8118541 16.7221686 45.3905471 15.1548081 45.2940547 15.2477151 45.2940547 16.7221686 44.9076839 16.7221686 44.9076839 13.3065523 45.2940547 13.3065523 45.2940547 14.7691453"></polygon>
                                    <path d="M47.2021167,13.3405128 C47.0865666,13.4553616 45.6124997,14.8960128 45.6124997,14.8960128 C45.6124997,14.8960128 47.1615939,16.5742686 47.2641046,16.68635 L46.8119343,16.68635 C46.8119343,16.668164 45.416907,15.13085 45.416907,15.13085 L45.3924328,15.1017919 L45.2686578,15.2235593 C45.2686578,15.2235593 45.2584267,16.61835 45.2584267,16.68635 L44.9452778,16.68635 L44.9452778,13.3405128 L45.2584267,13.3405128 L45.2584267,14.8560826 C45.2584267,14.8560826 46.7649921,13.3614663 46.7854541,13.3405128 L47.2021167,13.3405128 Z M47.2903842,13.270536 L46.7569678,13.270536 C46.7569678,13.270536 45.4427854,14.5702453 45.3316486,14.6841058 L45.3316486,13.270536 L44.8734602,13.270536 L44.8734602,16.7583035 L45.3316486,16.7583035 L45.3316486,15.2536058 C45.3354602,15.2555826 45.3651502,15.2277105 45.3882201,15.2057686 C45.4369678,15.257757 46.7854541,16.7462453 46.7854541,16.7462453 L47.3451502,16.7583035 L47.4282018,16.7583035 C47.4282018,16.7583035 45.7585422,14.9468151 45.710597,14.8989779 C45.7613508,14.8499547 47.376445,13.270536 47.376445,13.270536 L47.2903842,13.270536 Z" id="Fill-30" fill="#231F20" mask="url(#mask-4)"></path>
                                </g>
                                <g id="Oval-1">
                                    <use fill="url(#linearGradient-5)" fill-rule="evenodd" xlink:href="#path-6"></use>
                                    <use fill="black" fill-opacity="1" filter="url(#filter-7)" xlink:href="#path-6"></use>
                                </g>
                            </g>
                        </g>
                    </g>
                </g>
            </g>
        </g>
    </g>
</svg>