<?xml version="1.0" encoding="UTF-8"?>
<svg width="238px" height="238px" viewBox="0 0 238 238" version="1.1" xmlns="http://www.w3.org/2000/svg" xmlns:xlink="http://www.w3.org/1999/xlink">
    <!-- Generator: Sketch 52.2 (67145) - http://www.bohemiancoding.com/sketch -->
    <title>detect geolocation</title>
    <desc>Created with Sketch.</desc>
    <defs>
        <filter x="-4.3%" y="-4.7%" width="108.6%" height="110.1%" filterUnits="objectBoundingBox" id="filter-1">
            <feOffset dx="0" dy="2" in="SourceAlpha" result="shadowOffsetOuter1"></feOffset>
            <feGaussianBlur stdDeviation="2" in="shadowOffsetOuter1" result="shadowBlurOuter1"></feGaussianBlur>
            <feColorMatrix values="0 0 0 0 0   0 0 0 0 0   0 0 0 0 0  0 0 0 0.5 0" type="matrix" in="shadowBlurOuter1" result="shadowMatrixOuter1"></feColorMatrix>
            <feMerge>
                <feMergeNode in="shadowMatrixOuter1"></feMergeNode>
                <feMergeNode in="SourceGraphic"></feMergeNode>
            </feMerge>
        </filter>
    </defs>
    <g id="Desktop-/-Tablet" stroke="none" stroke-width="1" fill="none" fill-rule="evenodd">
        <g id="step-#1-(allow-geo-detect)" transform="translate(-383.000000, -384.000000)">
            <rect fill="#E6E9F0" x="0" y="0" width="1024" height="768"></rect>
            <g id="container" filter="url(#filter-1)" transform="translate(162.000000, 95.000000)" fill="#431C5D" opacity="0.50062779">
                <g id="form" transform="translate(39.000000, 60.000000)">
                    <g id="Address" transform="translate(1.000000, 194.000000)">
                        <g id="detect-geolocation" transform="translate(290.000000, 144.000000)">
                            <path d="M10,0 C4.486,0 0,4.486 0,10 C0,15.5138 4.486,20 10,20 C15.514,20 20,15.5138 20,10 C20,4.486 15.514,0 10,0 L10,0 Z M10.8064,13.6452 L9.1936,13.6452 L9.1936,18.3476 C5.2114,17.9658 2.0342,14.7886 1.6526,10.8064 L6.355,10.8064 L6.355,9.1936 L1.6526,9.1936 C2.0344,5.2114 5.2114,2.0344 9.1936,1.6526 L9.1936,6.3548 L10.8064,6.3548 L10.8064,1.6526 C14.7886,2.0342 17.9658,5.2112 18.3474,9.1936 L13.6452,9.1936 L13.6452,10.8064 L18.3476,10.8064 C17.9658,14.7886 14.7886,17.9658 10.8064,18.3474 L10.8064,13.6452 Z" id="Shape" opacity="0.8"></path>
                        </g>
                    </g>
                </g>
            </g>
        </g>
    </g>
</svg>