<?xml version="1.0" encoding="UTF-8"?>
<svg width="26px" height="26px" viewBox="0 0 26 26" version="1.1" xmlns="http://www.w3.org/2000/svg" xmlns:xlink="http://www.w3.org/1999/xlink">
    <!-- Generator: Sketch 52.2 (67145) - http://www.bohemiancoding.com/sketch -->
    <title>Combined Shape</title>
    <desc>Created with Sketch.</desc>
    <defs>
        <linearGradient x1="100%" y1="50%" x2="0%" y2="50%" id="linearGradient-1">
            <stop stop-color="#7E00E8" offset="0%"></stop>
            <stop stop-color="#FF1876" offset="54.1721397%"></stop>
            <stop stop-color="#BB0CB2" offset="100%"></stop>
        </linearGradient>
    </defs>
    <g id="Symbols" stroke="none" stroke-width="1" fill="none" fill-rule="evenodd">
        <g id="Navigation" transform="translate(-164.000000, -12.000000)" fill="url(#linearGradient-1)">
            <g id="Bg">
                <g id="Group-3" transform="translate(164.000000, 12.000000)">
                    <path d="M0.0942809042,13.5874259 C0.0276142375,13.5207592 -0.0390524292,13.4540926 0.0276142375,13.1874259 L0.0276142375,13.1207592 L0.0276142375,13.0540926 L0.0276142375,12.9874259 L0.0276142375,12.9207592 L0.0276142375,12.8540926 L0.0276142375,12.7874259 L0.0942809042,12.7207592 L0.160947571,12.6540926 L5.2942809,9.72075922 C5.4942809,9.58742589 5.82761424,9.65409255 5.96094757,9.92075922 C6.0942809,10.1207592 6.02761424,10.4540926 5.76094757,10.5874259 L1.36094757,13.1207592 L5.76094757,15.6540926 C6.02761424,15.7874259 6.0942809,16.0540926 5.96094757,16.3207592 C5.82761424,16.5207592 5.6942809,16.5874259 5.4942809,16.5874259 C5.36094757,16.5874259 5.2942809,16.5874259 5.22761424,16.5207592 L0.0942809042,13.5874259 Z M25.3609476,13.1207592 C25.3609476,13.1874259 25.3609476,13.1874259 25.4942809,13.3874259 L25.4942809,13.4540926 L25.4942809,13.5207592 C25.4276142,13.5874259 25.3609476,13.6540926 25.2942809,13.7207592 L20.1609476,16.6540926 C20.0942809,16.7207592 19.9609476,16.7207592 19.8942809,16.7207592 C19.6942809,16.7207592 19.4942809,16.5874259 19.4276142,16.4540926 C19.2942809,16.2540926 19.3609476,15.9207592 19.6276142,15.7874259 L24.0276142,13.2540926 L19.6276142,10.7207592 C19.3609476,10.5874259 19.2942809,10.3207592 19.4276142,10.0540926 C19.5609476,9.78742589 19.8276142,9.72075922 20.0942809,9.85409255 L25.2276142,12.7874259 L25.2942809,12.8540926 L25.3609476,12.9207592 L25.3609476,12.9874259 L25.3609476,13.0540926 L25.3609476,13.1207592 Z M22.0942809,0.12075922 C22.3609476,0.32075922 22.3609476,0.587425887 22.2276142,0.787425887 L3.82761424,25.1874259 C3.76094757,25.3207592 3.56094757,25.3874259 3.42761424,25.3874259 C3.2942809,25.3874259 3.16094757,25.3207592 3.0942809,25.2540926 C2.8942809,25.1207592 2.8942809,24.7874259 3.02761424,24.5874259 L21.4276142,0.187425887 C21.5609476,-0.0125741133 21.8942809,-0.0792407799 22.0942809,0.12075922 Z" id="Combined-Shape"></path>
                </g>
            </g>
        </g>
    </g>
</svg>