<?xml version="1.0" encoding="UTF-8"?>
<svg width="46px" height="27px" viewBox="0 0 46 27" version="1.1" xmlns="http://www.w3.org/2000/svg" xmlns:xlink="http://www.w3.org/1999/xlink">
    <!-- Generator: Sketch 52.2 (67145) - http://www.bohemiancoding.com/sketch -->
    <title>Mastercard card</title>
    <desc>Created with Sketch.</desc>
    <g id="Desktop-/-Tablet" stroke="none" stroke-width="1" fill="none" fill-rule="evenodd">
        <g id="step-#3-(detect-visa)" transform="translate(-467.000000, -362.000000)">
            <g id="container" transform="translate(162.000000, 95.000000)">
                <g id="Group-7" transform="translate(285.000000, 267.000000)">
                    <g id="Mastercard-card" transform="translate(20.000000, 0.000000)">
                        <g id="Mastercard-logo">
                            <polygon id="Fill-1" fill="#FBB331" points="32.0519681 0.0057375 31.3494894 0.0240589286 30.6516596 0.0739607143 29.9677766 0.160746429 29.2931915 0.2791125 28.6323085 0.4293 27.9807234 0.611308929 27.3474894 0.825380357 26.7237979 1.06669286 26.1184574 1.33982679 25.5314681 1.6358625 24.9584255 1.95913929 24.4039787 2.30965714 23.867883 2.68741607 23.350383 3.08807679 22.855883 3.51139821 22.3799787 3.95762143 21.9270745 4.42650536 21.4971702 4.91853214 21.0907553 5.42381786 20.7117447 5.95176429 20.355734 6.50285357 20.027617 7.0628625 19.7229894 7.64577321 19.4501702 8.24218393 19.2052447 8.85233571 18.992617 9.48056786 18.8076383 10.1177196 18.6554468 10.7688536 18.5350638 11.4291482 18.4474681 12.1029429 18.3965745 12.7858982 18.3779787 13.4780143 18.3965745 14.1744696 18.4474681 14.8620054 18.5350638 15.5358 18.6554468 16.2052554 18.8076383 16.8561482 18.992617 17.4981214 19.2052447 18.1263536 19.4501702 18.7410857 19.7229894 19.3420768 20.027617 19.9247464 20.355734 20.4893357 20.7117447 21.040425 21.0907553 21.5686125 21.4971702 22.0784786 21.9270745 22.5700232 22.3799787 23.0391482 22.855883 23.4897107 23.350383 23.9132732 23.867883 24.3136929 24.4039787 24.6916929 24.9584255 25.0422107 25.5314681 25.3700679 26.1184574 25.6661036 26.7237979 25.9392375 27.3474894 26.18055 27.9807234 26.3943804 28.6323085 26.5766304 29.2931915 26.7268179 29.9677766 26.845425 30.6516596 26.9317286 31.3494894 26.9818714 32.0519681 26.9999518 32.7588511 26.9818714 33.4566809 26.9317286 34.1405638 26.845425 34.8200426 26.7268179 35.4806809 26.5766304 36.132266 26.3943804 36.7701489 26.18055 37.3938404 25.9392375 38.0038298 25.6661036 38.5954681 25.3700679 39.168266 25.0422107 39.7276064 24.6916929 40.2634574 24.3136929 40.7812021 23.9132732 41.2801064 23.4897107 41.7562553 23.0391482 42.2138085 22.5700232 42.6432234 22.0784786 43.0501277 21.5686125 43.4335426 21.040425 43.7895532 20.4893357 44.1223191 19.9247464 44.4222979 19.3420768 44.699766 18.7410857 44.9446915 18.1263536 45.1619681 17.4981214 45.3469468 16.8561482 45.4991383 16.2052554 45.6195213 15.5358 45.707117 14.8620054 45.7580106 14.1744696 45.7766064 13.4780143 45.7580106 12.7858982 45.707117 12.1029429 45.6195213 11.4291482 45.4991383 10.7688536 45.3469468 10.1177196 45.1619681 9.48056786 44.9446915 8.85233571 44.699766 8.24218393 44.4222979 7.64577321 44.1223191 7.0628625 43.7895532 6.50285357 43.4335426 5.95176429 43.0501277 5.42381786 42.6432234 4.91853214 42.2138085 4.42650536 41.7562553 3.95762143 41.2801064 3.51139821 40.7812021 3.08807679 40.2634574 2.68741607 39.7276064 2.30965714 39.168266 1.95913929 38.5954681 1.6358625 38.0038298 1.33982679 37.3938404 1.06669286 36.7701489 0.825380357 36.132266 0.611308929 35.4806809 0.4293 34.8200426 0.2791125 34.1405638 0.160746429 33.4566809 0.0739607143 32.7588511 0.0240589286"></polygon>
                            <polygon id="Fill-2" fill="#EC1C2D" points="13.7245404 0.0057375 13.0176574 0.0240589286 12.3198277 0.0739607143 11.6359447 0.160746429 10.956466 0.2791125 10.2958277 0.4293 9.64424255 0.611308929 9.00635957 0.825380357 8.38266809 1.06669286 7.77267872 1.33982679 7.18104043 1.6358625 6.60824255 1.95913929 6.04914681 2.30965714 5.51280638 2.68741607 4.99530638 3.08807679 4.49640213 3.51139821 4.02025319 3.95762143 3.5627 4.42650536 3.13304043 4.91853214 2.72638085 5.42381786 2.34296596 5.95176429 1.98695532 6.50285357 1.65418936 7.0628625 1.35396596 7.64577321 1.07674255 8.24218393 0.831817021 8.85233571 0.614540426 9.48056786 0.429561702 10.1177196 0.277370213 10.7688536 0.156987234 11.4291482 0.0691468085 12.1029429 0.0182531915 12.7858982 -9.78723401e-05 13.4780143 0.0182531915 14.1744696 0.0691468085 14.8620054 0.156987234 15.5358 0.277370213 16.2052554 0.429561702 16.8561482 0.614540426 17.4981214 0.831817021 18.1263536 1.07674255 18.7410857 1.35396596 19.3420768 1.65418936 19.9247464 1.98695532 20.4893357 2.34296596 21.040425 2.72638085 21.5686125 3.13304043 22.0784786 3.5627 22.5700232 4.02025319 23.0391482 4.49640213 23.4897107 4.99530638 23.9132732 5.51280638 24.3136929 6.04914681 24.6916929 6.60824255 25.0422107 7.18104043 25.3700679 7.77267872 25.6661036 8.38266809 25.9392375 9.00635957 26.18055 9.64424255 26.3943804 10.2958277 26.5766304 10.956466 26.7268179 11.6359447 26.845425 12.3198277 26.9317286 13.0176574 26.9818714 13.7245404 26.9999518 14.4270191 26.9818714 15.1248489 26.9317286 15.8087319 26.845425 16.483317 26.7268179 17.1442 26.5766304 17.7957851 26.3943804 18.4290191 26.18055 19.0527106 25.9392375 19.6582957 25.6661036 20.2450404 25.3700679 20.818083 25.0422107 21.3725298 24.6916929 21.9086255 24.3136929 22.4261255 23.9132732 22.9206255 23.4897107 23.3965298 23.0391482 23.849434 22.5700232 24.2790936 22.0784786 24.6857532 21.5686125 25.0645191 21.040425 25.4207745 20.4893357 25.7486468 19.9247464 26.0535191 19.3420768 26.3263383 18.7410857 26.5712638 18.1263536 26.7838915 17.4981214 26.9686255 16.8561482 27.1213064 16.2052554 27.2412 15.5358 27.3290404 14.8620054 27.379934 14.1744696 27.3985298 13.4780143 27.379934 12.7858982 27.3290404 12.1029429 27.2412 11.4291482 27.1213064 10.7688536 26.9686255 10.1177196 26.7838915 9.48056786 26.5712638 8.85233571 26.3263383 8.24218393 26.0535191 7.64577321 25.7486468 7.0628625 25.4207745 6.50285357 25.0645191 5.95176429 24.6857532 5.42381786 24.2790936 4.91853214 23.849434 4.42650536 23.3965298 3.95762143 22.9206255 3.51139821 22.4261255 3.08807679 21.9086255 2.68741607 21.3725298 2.30965714 20.818083 1.95913929 20.2450404 1.6358625 19.6582957 1.33982679 19.0527106 1.06669286 18.4290191 0.825380357 17.7957851 0.611308929 17.1442 0.4293 16.483317 0.2791125 15.8087319 0.160746429 15.1248489 0.0739607143 14.4270191 0.0240589286"></polygon>
                            <polygon id="Fill-3" fill="#FBB331" points="21.2846894 5.18248125 28.562966 5.18248125 28.562966 4.44938304 21.9130298 4.44938304"></polygon>
                            <polygon id="Fill-4" fill="#FBB331" points="20.1940979 6.81248571 28.562917 6.81248571 28.562917 6.0793875 20.6330553 6.0793875"></polygon>
                            <polygon id="Fill-5" fill="#FBB331" points="19.3808032 8.4378375 28.5629415 8.4378375 28.5629415 7.70473929 19.7042713 7.70473929"></polygon>
                            <polygon id="Fill-6" fill="#FBB331" points="18.821634 10.0676973 28.5628681 10.0676973 28.5628681 9.33484018 19.0528574 9.33484018"></polygon>
                            <polygon id="Fill-7" fill="#FBB331" points="19.1451266 17.9443446 28.5861372 17.9443446 28.5861372 17.2112464 18.9141479 17.2112464"></polygon>
                            <polygon id="Fill-8" fill="#FBB331" points="19.8429319 19.5742768 28.5861128 19.5742768 28.5861128 18.8411786 19.4964638 18.8411786"></polygon>
                            <polygon id="Fill-9" fill="#FBB331" points="20.822634 21.1997009 28.5861128 21.1997009 28.5861128 20.4666027 20.355783 20.4666027"></polygon>
                            <polygon id="Fill-10" fill="#FBB331" points="22.172 22.829633 28.5860638 22.829633 28.5860638 22.0921955 21.5204149 22.0921955"></polygon>
                            <polygon id="Fill-11" fill="#FBB331" points="18.493566 11.6931696 28.562917 11.6931696 28.562917 10.9600714 18.6367043 10.9600714"></polygon>
                            <polygon id="Fill-12" fill="#FBB331" points="24.6304064 16.3189205 28.4704277 16.3189205 28.4704277 15.5858223 24.7688957 15.5858223"></polygon>
                            <polygon id="Fill-13" fill="#FBB331" points="24.9353521 14.6935687 28.4705011 14.6935687 28.4705011 13.9558902 25.0740862 13.9558902"></polygon>
                            <polygon id="Fill-14" fill="#FBB331" points="18.239367 13.9559625 19.2376649 13.9559625 19.2376649 14.6936411 18.2856117 14.6936411"></polygon>
                            <polygon id="Fill-15" fill="#FEFEFE" points="16.3771011 13.0681446 16.3125053 13.0635643 16.2476649 13.0544036 16.1877181 13.0454839 16.1275266 13.0363232 16.0722287 13.0271625 16.0120372 13.0180018 15.9518457 13.0090821 15.88725 12.9999214 15.8226543 12.9907607 15.7487606 12.9861804 15.6655691 12.9816 15.5777287 12.9770196 15.4805904 12.9770196 15.3743989 12.9816 15.2542606 12.9907607 15.1201755 12.9999214 15.0276862 13.0136625 14.9398457 13.0271625 14.8613032 13.0544036 14.7920585 13.0818857 14.7274628 13.1137071 14.6672713 13.1501089 14.6210266 13.1956714 14.5794309 13.2366536 14.5517819 13.2867964 14.5285372 13.3366982 14.519484 13.3914214 14.519484 13.4461446 14.5331862 13.5052071 14.5517819 13.5645107 14.5887287 13.6235732 14.6349734 13.6828768 14.7274628 13.7691804 14.8383032 13.8376446 14.9677394 13.8967071 15.1062287 13.94685 15.2542606 13.9924125 15.4066968 14.0425554 15.559133 14.0970375 15.7069202 14.1563411 15.8456543 14.233725 15.9750904 14.3291893 16.0905798 14.4432161 16.1877181 14.5842429 16.2616117 14.7573321 16.3078564 14.9622429 16.3262074 15.2078946 16.3078564 15.4947696 16.2753138 15.7088411 16.220016 15.8954304 16.1461223 16.0685196 16.053633 16.2187071 15.9474415 16.3508143 15.8270585 16.4646 15.697867 16.5648857 15.554484 16.6511893 15.4066968 16.7194125 15.2542606 16.7787161 15.0969309 16.8242786 14.9354415 16.8606804 14.7781117 16.8881625 14.6256755 16.9016625 14.4732394 16.9108232 14.3298564 16.9154036 14.1311755 16.9154036 13.9464415 16.9108232 13.7847074 16.9108232 13.6322713 16.9062429 13.4935372 16.9016625 13.36875 16.8925018 13.2579096 16.8835821 13.1514734 16.8698411 13.0545798 16.8606804 12.9667394 16.8426 12.8788989 16.8288589 12.8003564 16.8061982 12.7218138 16.7878768 12.6479202 16.7606357 12.5740266 16.7331536 12.495484 16.7059125 12.7032181 15.6996804 12.7450585 15.7088411 12.7957074 15.7223411 12.8605479 15.7406625 12.9390904 15.7589839 13.0222819 15.7770643 13.1145266 15.7953857 13.2163138 15.8180464 13.3271543 15.8363679 13.4426436 15.8544482 13.5627819 15.8727696 13.6875691 15.8865107 13.8170053 15.9000107 13.9510904 15.9045911 14.0849309 15.9091714 14.219016 15.9091714 14.3531011 15.9045911 14.4871862 15.87735 14.5933777 15.8409482 14.6765691 15.7908054 14.7411649 15.7271625 14.7874096 15.6632786 14.8243564 15.590475 14.8476011 15.5176714 14.8659521 15.4494482 14.87525 15.3173411 14.8336543 15.2035554 14.7551117 15.1124304 14.6396223 15.0350464 14.5008883 14.9668232 14.3391543 14.8983589 14.1590691 14.8347161 13.9787394 14.7619125 13.7940053 14.6799482 13.6183245 14.5842429 13.4565904 14.4658768 13.3088032 14.32485 13.1930691 14.1517607 13.1098777 13.94685 13.0682819 13.7009571 13.0729309 13.4095018 13.0961755 13.2320732 13.1284734 13.0635643 13.1747181 12.9087964 13.230016 12.7631893 13.3041543 12.6265018 13.3873457 12.5081357 13.4842394 12.39435 13.5999734 12.2943054 13.7338138 12.2077607 13.8816011 12.1347161 14.047984 12.0664929 14.2329628 12.0165911 14.4409415 11.9753679 14.6672713 11.9435464 14.9168457 11.9254661 15.1894202 11.9208857 15.3604521 11.9208857 15.5175372 11.9254661 15.6609202 11.9300464 15.7901117 11.9343857 15.9058457 11.9435464 16.0120372 11.9527071 16.1045266 11.9618679 16.1877181 11.9707875 16.2662606 11.9799482 16.3308564 11.9936893 16.3910479 12.00285 16.4463457 12.0117696 16.4925904 12.0209304 16.5341862 12.0255107 16.5757819 12.0346714 16.6127287 12.0392518"></polygon>
                            <polyline id="Stroke-16" stroke="#FEFEFE" stroke-width="0.216" points="16.3771011 13.0681446 16.3771011 13.0681446 16.3125053 13.0635643 16.2476649 13.0544036 16.1877181 13.0454839 16.1275266 13.0363232 16.0722287 13.0271625 16.0120372 13.0180018 15.9518457 13.0090821 15.88725 12.9999214 15.8226543 12.9907607 15.7487606 12.9861804 15.6655691 12.9816 15.5777287 12.9770196 15.4805904 12.9770196 15.3743989 12.9816 15.2542606 12.9907607 15.1201755 12.9999214 15.0276862 13.0136625 14.9398457 13.0271625 14.8613032 13.0544036 14.7920585 13.0818857 14.7274628 13.1137071 14.6672713 13.1501089 14.6210266 13.1956714 14.5794309 13.2366536 14.5517819 13.2867964 14.5285372 13.3366982 14.519484 13.3914214 14.519484 13.4461446 14.5331862 13.5052071 14.5517819 13.5645107 14.5887287 13.6235732 14.6349734 13.6828768 14.7274628 13.7691804 14.8383032 13.8376446 14.9677394 13.8967071 15.1062287 13.94685 15.2542606 13.9924125 15.4066968 14.0425554 15.559133 14.0970375 15.7069202 14.1563411 15.8456543 14.233725 15.9750904 14.3291893 16.0905798 14.4432161 16.1877181 14.5842429 16.2616117 14.7573321 16.3078564 14.9622429 16.3262074 15.2078946 16.3078564 15.4947696 16.2753138 15.7088411 16.220016 15.8954304 16.1461223 16.0685196 16.053633 16.2187071 15.9474415 16.3508143 15.8270585 16.4646 15.697867 16.5648857 15.554484 16.6511893 15.4066968 16.7194125 15.2542606 16.7787161 15.0969309 16.8242786 14.9354415 16.8606804 14.7781117 16.8881625 14.6256755 16.9016625 14.4732394 16.9108232 14.3298564 16.9154036 14.1311755 16.9154036 13.9464415 16.9108232 13.7847074 16.9108232 13.6322713 16.9062429 13.4935372 16.9016625 13.36875 16.8925018 13.2579096 16.8835821 13.1514734 16.8698411 13.0545798 16.8606804 12.9667394 16.8426 12.8788989 16.8288589 12.8003564 16.8061982 12.7218138 16.7878768 12.6479202 16.7606357 12.5740266 16.7331536 12.495484 16.7059125 12.7032181 15.6996804 12.7450585 15.7088411 12.7957074 15.7223411 12.8605479 15.7406625 12.9390904 15.7589839 13.0222819 15.7770643 13.1145266 15.7953857 13.2163138 15.8180464 13.3271543 15.8363679 13.4426436 15.8544482 13.5627819 15.8727696 13.6875691 15.8865107 13.8170053 15.9000107 13.9510904 15.9045911 14.0849309 15.9091714 14.219016 15.9091714 14.3531011 15.9045911 14.4871862 15.87735 14.5933777 15.8409482 14.6765691 15.7908054 14.7411649 15.7271625 14.7874096 15.6632786 14.8243564 15.590475 14.8476011 15.5176714 14.8659521 15.4494482 14.87525 15.3173411 14.8336543 15.2035554 14.7551117 15.1124304 14.6396223 15.0350464 14.5008883 14.9668232 14.3391543 14.8983589 14.1590691 14.8347161 13.9787394 14.7619125 13.7940053 14.6799482 13.6183245 14.5842429 13.4565904 14.4658768 13.3088032 14.32485 13.1930691 14.1517607 13.1098777 13.94685 13.0682819 13.7009571 13.0729309 13.4095018 13.0961755 13.2320732 13.1284734 13.0635643 13.1747181 12.9087964 13.230016 12.7631893 13.3041543 12.6265018 13.3873457 12.5081357 13.4842394 12.39435 13.5999734 12.2943054 13.7338138 12.2077607 13.8816011 12.1347161 14.047984 12.0664929 14.2329628 12.0165911 14.4409415 11.9753679 14.6672713 11.9435464 14.9168457 11.9254661 15.1894202 11.9208857 15.3604521 11.9208857 15.5175372 11.9254661 15.6609202 11.9300464 15.7901117 11.9343857 15.9058457 11.9435464 16.0120372 11.9527071 16.1045266 11.9618679 16.1877181 11.9707875 16.2662606 11.9799482 16.3308564 11.9936893 16.3910479 12.00285 16.4463457 12.0117696 16.4925904 12.0209304 16.5341862 12.0255107 16.5757819 12.0346714 16.6127287 12.0392518 16.3771011 13.0681446"></polyline>
                            <polygon id="Fill-17" fill="#FEFEFE" points="17.4722681 10.9146295 18.7524383 10.9146295 18.5628106 12.016567 19.334534 12.016567 19.1681511 13.0454598 18.3548319 13.022558 17.9112255 15.5632098 17.9065766 15.6543348 17.9298213 15.7314777 17.976066 15.7907813 18.0360128 15.8409241 18.1192043 15.8727455 18.2116936 15.8999866 18.3132362 15.918308 18.4243213 15.9274688 18.5258638 15.9228884 18.6183532 15.9137277 18.7015447 15.8999866 18.7754383 15.8819063 18.8356298 15.8635848 18.8772255 15.8500848 18.9048745 15.8409241 18.9141723 15.8363438 18.7524383 16.6832277 18.7198957 16.7058884 18.6875979 16.7242098 18.6553 16.7422902 18.6230021 16.7606116 18.5907043 16.7741116 18.5537574 16.7878527 18.511917 16.8015938 18.470566 16.8153348 18.4243213 16.8288348 18.3780766 16.8379955 18.322534 16.8471563 18.2672362 16.8560759 18.2070447 16.8652366 18.1378 16.8743973 18.0639064 16.883558 17.9851191 16.8924777 17.6340021 16.8924777 17.4492681 16.8789777 17.287534 16.8606563 17.1395021 16.8334152 17.0149596 16.8015938 16.9085234 16.7606116 16.820683 16.7150491 16.7421404 16.6603259 16.6819489 16.6012634 16.6359489 16.5373795 16.6036511 16.4599955 16.5804064 16.3826116 16.5664596 16.296067 16.5620553 16.2006027 16.5620553 16.100317 16.5757574 15.995692 16.5897043 15.8819063"></polygon>
                            <polyline id="Stroke-18" stroke="#FEFEFE" stroke-width="0.216" points="17.4722681 10.9146295 18.7524383 10.9146295 18.5628106 12.016567 19.334534 12.016567 19.1681511 13.0454598 18.3548319 13.022558 17.9112255 15.5632098 17.9065766 15.6543348 17.9298213 15.7314777 17.976066 15.7907813 18.0360128 15.8409241 18.1192043 15.8727455 18.2116936 15.8999866 18.3132362 15.918308 18.4243213 15.9274688 18.5258638 15.9228884 18.6183532 15.9137277 18.7015447 15.8999866 18.7754383 15.8819063 18.8356298 15.8635848 18.8772255 15.8500848 18.9048745 15.8409241 18.9141723 15.8363438 18.7524383 16.6832277 18.7198957 16.7058884 18.6875979 16.7242098 18.6553 16.7422902 18.6230021 16.7606116 18.5907043 16.7741116 18.5537574 16.7878527 18.511917 16.8015938 18.470566 16.8153348 18.4243213 16.8288348 18.3780766 16.8379955 18.322534 16.8471563 18.2672362 16.8560759 18.2070447 16.8652366 18.1378 16.8743973 18.0639064 16.883558 17.9851191 16.8924777 17.6340021 16.8924777 17.4492681 16.8789777 17.287534 16.8606563 17.1395021 16.8334152 17.0149596 16.8015938 16.9085234 16.7606116 16.820683 16.7150491 16.7421404 16.6603259 16.6819489 16.6012634 16.6359489 16.5373795 16.6036511 16.4599955 16.5804064 16.3826116 16.5664596 16.296067 16.5620553 16.2006027 16.5620553 16.100317 16.5757574 15.995692 16.5897043 15.8819063 17.4722681 10.9146295"></polyline>
                            <polygon id="Fill-19" fill="#FEFEFE" points="20.3558319 14.7618402 20.3418851 14.8392241 20.3374809 14.9211884 20.346534 15.007733 20.3651298 15.0942777 20.3974277 15.1808223 20.4343745 15.2625455 20.4852681 15.3490902 20.540566 15.4264741 20.6054064 15.503858 20.6746511 15.5723223 20.7487894 15.6405455 20.8317362 15.6952688 20.9149277 15.7451705 21.007417 15.7861527 21.0999064 15.8179741 21.1923957 15.8362955 21.312534 15.854617 21.4280234 15.868117 21.5481617 15.881858 21.6683 15.8910188 21.7884383 15.8955991 21.9132255 15.8955991 22.0333638 15.8910188 22.1581511 15.881858 22.2829383 15.8637777 22.4074809 15.8408759 22.536917 15.8136348 22.6617043 15.7726527 22.7911404 15.7225098 22.9252255 15.6677866 23.0546617 15.594983 23.1885021 15.5175991 23.0037681 16.637617 22.9298745 16.6740188 22.8559809 16.7104205 22.7818426 16.7379027 22.7125979 16.7651438 22.6433532 16.7878045 22.5694596 16.8107063 22.495566 16.8287866 22.4167787 16.8425277 22.3335872 16.8562688 22.2413426 16.8651884 22.1442043 16.8743491 22.0380128 16.8835098 21.9178745 16.8880902 21.7930872 16.8880902 21.6497043 16.8926705 21.4972681 16.8926705 21.2709383 16.8880902 21.0397149 16.8651884 20.8087362 16.833367 20.5777574 16.7788848 20.351183 16.7104205 20.1341511 16.6238759 19.9261723 16.5100902 19.7321404 16.377983 19.5518106 16.2232152 19.3947255 16.0366259 19.2606404 15.8271348 19.1498 15.5858223 19.0712574 15.3172688 19.0203638 15.0123134 19.006417 14.6752955 19.0296617 14.302117 19.0480128 14.1562688 19.0759064 13.9877598 19.1128532 13.8103313 19.1637468 13.6191616 19.2329915 13.4231705 19.316183 13.2274205 19.4223745 13.0270902 19.5518106 12.8359205 19.6995979 12.6539116 19.8799277 12.4808223 20.0832574 12.3260545 20.3142362 12.189367 20.5824064 12.0755813 20.8826298 11.993617 21.2153957 11.9391348 21.5897574 11.9208134 21.7698426 11.9253938 21.9594702 11.9434741 22.1488532 11.9755366 22.3382362 12.020858 22.5232149 12.0893223 22.7033 12.1712866 22.869683 12.280492 23.0223638 12.4080188 23.1608532 12.5627866 23.2763426 12.7450366 23.3688319 12.9542866 23.4334277 13.1955991 23.4703745 13.468733 23.4750234 13.7785098 23.4427255 14.1244473 23.3734809 14.5067866 23.3502362 14.7845009 19.9814702 14.7845009 20.1940979 13.8877152 22.2180979 13.8877152 22.2273957 13.7739295 22.2227468 13.664483 22.2134489 13.5644384 22.1950979 13.4733134 22.1628 13.3867688 22.1302574 13.3093848 22.0842574 13.2411616 22.0380128 13.1775188 21.9824702 13.1227955 21.9225234 13.077233 21.853034 13.0362509 21.7837894 12.9998491 21.7098957 12.972608 21.6360021 12.9542866 21.5572149 12.9407866 21.4742681 12.9316259 21.3864277 12.9362063 21.3032362 12.9497063 21.2246936 12.9680277 21.1461511 12.9952688 21.0676085 13.0316705 20.9981191 13.0726527 20.9288745 13.1227955 20.8689277 13.1775188 20.8087362 13.2411616 20.7531936 13.3093848 20.7023 13.3821884 20.6609489 13.4598134 20.6193532 13.5415366 20.5870553 13.6326616 20.5591617 13.7237866 20.540566 13.8192509"></polygon>
                            <polyline id="Stroke-20" stroke="#FEFEFE" stroke-width="0.216" points="20.3558319 14.7618402 20.3558319 14.7618402 20.3418851 14.8392241 20.3374809 14.9211884 20.346534 15.007733 20.3651298 15.0942777 20.3974277 15.1808223 20.4343745 15.2625455 20.4852681 15.3490902 20.540566 15.4264741 20.6054064 15.503858 20.6746511 15.5723223 20.7487894 15.6405455 20.8317362 15.6952688 20.9149277 15.7451705 21.007417 15.7861527 21.0999064 15.8179741 21.1923957 15.8362955 21.312534 15.854617 21.4280234 15.868117 21.5481617 15.881858 21.6683 15.8910188 21.7884383 15.8955991 21.9132255 15.8955991 22.0333638 15.8910188 22.1581511 15.881858 22.2829383 15.8637777 22.4074809 15.8408759 22.536917 15.8136348 22.6617043 15.7726527 22.7911404 15.7225098 22.9252255 15.6677866 23.0546617 15.594983 23.1885021 15.5175991 23.0037681 16.637617 22.9298745 16.6740188 22.8559809 16.7104205 22.7818426 16.7379027 22.7125979 16.7651438 22.6433532 16.7878045 22.5694596 16.8107063 22.495566 16.8287866 22.4167787 16.8425277 22.3335872 16.8562688 22.2413426 16.8651884 22.1442043 16.8743491 22.0380128 16.8835098 21.9178745 16.8880902 21.7930872 16.8880902 21.6497043 16.8926705 21.4972681 16.8926705 21.2709383 16.8880902 21.0397149 16.8651884 20.8087362 16.833367 20.5777574 16.7788848 20.351183 16.7104205 20.1341511 16.6238759 19.9261723 16.5100902 19.7321404 16.377983 19.5518106 16.2232152 19.3947255 16.0366259 19.2606404 15.8271348 19.1498 15.5858223 19.0712574 15.3172688 19.0203638 15.0123134 19.006417 14.6752955 19.0296617 14.302117 19.0480128 14.1562688 19.0759064 13.9877598 19.1128532 13.8103313 19.1637468 13.6191616 19.2329915 13.4231705 19.316183 13.2274205 19.4223745 13.0270902 19.5518106 12.8359205 19.6995979 12.6539116 19.8799277 12.4808223 20.0832574 12.3260545 20.3142362 12.189367 20.5824064 12.0755813 20.8826298 11.993617 21.2153957 11.9391348 21.5897574 11.9208134 21.7698426 11.9253938 21.9594702 11.9434741 22.1488532 11.9755366 22.3382362 12.020858 22.5232149 12.0893223 22.7033 12.1712866 22.869683 12.280492 23.0223638 12.4080188 23.1608532 12.5627866 23.2763426 12.7450366 23.3688319 12.9542866 23.4334277 13.1955991 23.4703745 13.468733 23.4750234 13.7785098 23.4427255 14.1244473 23.3734809 14.5067866 23.3502362 14.7845009 19.9814702 14.7845009 20.1940979 13.8877152 22.2180979 13.8877152 22.2273957 13.7739295 22.2227468 13.664483 22.2134489 13.5644384 22.1950979 13.4733134 22.1628 13.3867688 22.1302574 13.3093848 22.0842574 13.2411616 22.0380128 13.1775188 21.9824702 13.1227955 21.9225234 13.077233 21.853034 13.0362509 21.7837894 12.9998491 21.7098957 12.972608 21.6360021 12.9542866 21.5572149 12.9407866 21.4742681 12.9316259 21.3864277 12.9362063 21.3032362 12.9497063 21.2246936 12.9680277 21.1461511 12.9952688 21.0676085 13.0316705 20.9981191 13.0726527 20.9288745 13.1227955 20.8689277 13.1775188 20.8087362 13.2411616 20.7531936 13.3093848 20.7023 13.3821884 20.6609489 13.4598134 20.6193532 13.5415366 20.5870553 13.6326616 20.5591617 13.7237866 20.540566 13.8192509 20.3558319 14.7618402"></polyline>
                            <polygon id="Fill-21" fill="#FEFEFE" points="31.3771628 12.2896045 31.317216 12.257783 31.2570245 12.230542 31.1924287 12.1984795 31.1229394 12.166658 31.0536947 12.139417 30.9751521 12.1121759 30.8966096 12.0846937 30.8134181 12.0574527 30.7255777 12.0345509 30.6377372 12.0164705 30.5408436 11.9981491 30.4437053 11.9846491 30.3375138 11.9754884 30.2310777 11.9663277 30.1202372 11.9663277 30.0047479 11.9663277 29.8892585 11.9663277 29.7691202 11.9754884 29.644333 11.9892295 29.5148968 12.0118902 29.3854606 12.048292 29.2560245 12.0984348 29.1265883 12.1620777 28.9971521 12.244042 28.8726096 12.3443277 28.7524713 12.4626937 28.6369819 12.6083009 28.5258968 12.7768098 28.4243543 12.9771402 28.327216 13.2047116 28.2393755 13.4597652 28.1654819 13.7509795 28.137833 13.914908 28.1192372 14.0742562 28.1099394 14.2336045 28.1145883 14.3886134 28.1285351 14.5433812 28.160833 14.6889884 28.2024287 14.8256759 28.2533223 14.9621223 28.322567 15.0850687 28.4057585 15.2034348 28.5028968 15.3083009 28.6137372 15.4037652 28.7385245 15.4857295 28.8816628 15.5539527 29.0389926 15.6132562 29.2144287 15.6542384 29.2746202 15.6679795 29.3438649 15.6814795 29.4270564 15.6906402 29.5195457 15.6998009 29.6210883 15.7087205 29.7272798 15.7087205 29.8430138 15.7087205 29.9585032 15.6998009 30.0786415 15.6860598 30.1987798 15.6633991 30.3142691 15.6315777 30.4297585 15.5949348 30.5452479 15.545033 30.651684 15.4857295 30.7488223 15.4129259 30.841067 15.3309616 30.6330883 16.5466848 30.6054394 16.5693455 30.5777904 16.5965866 30.5408436 16.6286491 30.4992479 16.6558902 30.4483543 16.692292 30.3835138 16.7241134 30.3096202 16.7559348 30.2264287 16.783417 30.1202372 16.8152384 30.0000989 16.8378991 29.8613649 16.8562205 29.6996309 16.8743009 29.5195457 16.8834616 29.311567 16.888042 29.0759394 16.8834616 28.817067 16.8697205 28.6044394 16.8470598 28.3918117 16.8014973 28.1794287 16.7332741 27.9668011 16.6421491 27.7634713 16.5329437 27.5694394 16.3962562 27.3844606 16.236908 27.2136734 16.0548991 27.0609926 15.8499884 26.9315564 15.622417 26.820716 15.3673634 26.7375245 15.0896491 26.6822266 14.7846937 26.6636309 14.461417 26.6729287 14.1063187 26.7235777 13.7283187 26.7607691 13.5417295 26.8023649 13.3594795 26.8483649 13.1820509 26.8946096 13.013542 26.9455032 12.8541937 27.00545 12.6948455 27.0656415 12.544658 27.1302372 12.4033902 27.1997266 12.2623634 27.2689713 12.1302562 27.3475138 12.0027295 27.4307053 11.8843634 27.5138968 11.7705777 27.6063862 11.6613723 27.6986309 11.5610866 27.7957691 11.4656223 27.9022053 11.3744973 28.0083968 11.2879527 28.1192372 11.2105687 28.2347266 11.1377652 28.3595138 11.0693009 28.4843011 11.0102384 28.6137372 10.9555152 28.7478223 10.9056134 28.8909606 10.8600509 29.0343436 10.8236491 29.1821309 10.7915866 29.339216 10.7643455 29.4963011 10.7414437 29.662684 10.7233634 29.829067 10.7142027 30.0047479 10.7098634 30.1525351 10.7142027 30.2959181 10.7233634 30.4344074 10.7368634 30.5731415 10.7551848 30.7025777 10.7735062 30.8273649 10.8007473 30.9475032 10.8236491 31.0583436 10.8508902 31.1645351 10.8781312 31.2570245 10.9056134 31.3448649 10.9328545 31.4187585 10.9600955 31.4833543 10.9829973 31.5388968 11.0010777 31.5804926 11.0193991 31.6081415 11.0285598"></polygon>
                            <polyline id="Stroke-22" stroke="#FEFEFE" stroke-width="0.216" points="31.3771628 12.2896045 31.3771628 12.2896045 31.317216 12.257783 31.2570245 12.230542 31.1924287 12.1984795 31.1229394 12.166658 31.0536947 12.139417 30.9751521 12.1121759 30.8966096 12.0846937 30.8134181 12.0574527 30.7255777 12.0345509 30.6377372 12.0164705 30.5408436 11.9981491 30.4437053 11.9846491 30.3375138 11.9754884 30.2310777 11.9663277 30.1202372 11.9663277 30.0047479 11.9663277 29.8892585 11.9663277 29.7691202 11.9754884 29.644333 11.9892295 29.5148968 12.0118902 29.3854606 12.048292 29.2560245 12.0984348 29.1265883 12.1620777 28.9971521 12.244042 28.8726096 12.3443277 28.7524713 12.4626937 28.6369819 12.6083009 28.5258968 12.7768098 28.4243543 12.9771402 28.327216 13.2047116 28.2393755 13.4597652 28.1654819 13.7509795 28.137833 13.914908 28.1192372 14.0742562 28.1099394 14.2336045 28.1145883 14.3886134 28.1285351 14.5433812 28.160833 14.6889884 28.2024287 14.8256759 28.2533223 14.9621223 28.322567 15.0850687 28.4057585 15.2034348 28.5028968 15.3083009 28.6137372 15.4037652 28.7385245 15.4857295 28.8816628 15.5539527 29.0389926 15.6132562 29.2144287 15.6542384 29.2746202 15.6679795 29.3438649 15.6814795 29.4270564 15.6906402 29.5195457 15.6998009 29.6210883 15.7087205 29.7272798 15.7087205 29.8430138 15.7087205 29.9585032 15.6998009 30.0786415 15.6860598 30.1987798 15.6633991 30.3142691 15.6315777 30.4297585 15.5949348 30.5452479 15.545033 30.651684 15.4857295 30.7488223 15.4129259 30.841067 15.3309616 30.6330883 16.5466848 30.6054394 16.5693455 30.5777904 16.5965866 30.5408436 16.6286491 30.4992479 16.6558902 30.4483543 16.692292 30.3835138 16.7241134 30.3096202 16.7559348 30.2264287 16.783417 30.1202372 16.8152384 30.0000989 16.8378991 29.8613649 16.8562205 29.6996309 16.8743009 29.5195457 16.8834616 29.311567 16.888042 29.0759394 16.8834616 28.817067 16.8697205 28.6044394 16.8470598 28.3918117 16.8014973 28.1794287 16.7332741 27.9668011 16.6421491 27.7634713 16.5329437 27.5694394 16.3962562 27.3844606 16.236908 27.2136734 16.0548991 27.0609926 15.8499884 26.9315564 15.622417 26.820716 15.3673634 26.7375245 15.0896491 26.6822266 14.7846937 26.6636309 14.461417 26.6729287 14.1063187 26.7235777 13.7283187 26.7607691 13.5417295 26.8023649 13.3594795 26.8483649 13.1820509 26.8946096 13.013542 26.9455032 12.8541937 27.00545 12.6948455 27.0656415 12.544658 27.1302372 12.4033902 27.1997266 12.2623634 27.2689713 12.1302562 27.3475138 12.0027295 27.4307053 11.8843634 27.5138968 11.7705777 27.6063862 11.6613723 27.6986309 11.5610866 27.7957691 11.4656223 27.9022053 11.3744973 28.0083968 11.2879527 28.1192372 11.2105687 28.2347266 11.1377652 28.3595138 11.0693009 28.4843011 11.0102384 28.6137372 10.9555152 28.7478223 10.9056134 28.8909606 10.8600509 29.0343436 10.8236491 29.1821309 10.7915866 29.339216 10.7643455 29.4963011 10.7414437 29.662684 10.7233634 29.829067 10.7142027 30.0047479 10.7098634 30.1525351 10.7142027 30.2959181 10.7233634 30.4344074 10.7368634 30.5731415 10.7551848 30.7025777 10.7735062 30.8273649 10.8007473 30.9475032 10.8236491 31.0583436 10.8508902 31.1645351 10.8781312 31.2570245 10.9056134 31.3448649 10.9328545 31.4187585 10.9600955 31.4833543 10.9829973 31.5388968 11.0010777 31.5804926 11.0193991 31.6081415 11.0285598 31.3771628 12.2896045"></polyline>
                            <polygon id="Fill-23" fill="#FEFEFE" points="42.754284 16.8925982 41.4743585 16.8925982 41.5668479 16.3873125 41.5668479 16.34175 41.4927096 16.4326339 41.414167 16.5145982 41.3356245 16.5876429 41.252433 16.6512857 41.1692415 16.7105893 41.08605 16.7604911 41.0028585 16.8014732 40.9150181 16.8424554 40.8271777 16.8745179 40.7395819 16.8971786 40.6517415 16.9198393 40.5592521 16.9335804 40.4667628 16.9473214 40.3789223 16.9562411 40.2866777 16.9608214 40.1941883 16.9608214 39.9539117 16.9427411 39.7322309 16.8925982 39.5286564 16.8152143 39.3439223 16.7105893 39.1775394 16.5784821 39.0297521 16.4237143 38.900316 16.2552054 38.7894755 16.0640357 38.6969862 15.859125 38.6230926 15.6450536 38.5721989 15.4220625 38.5352521 15.1899107 38.5213053 14.9575179 38.5259543 14.7207857 38.5491989 14.4886339 38.5907947 14.2564821 38.6600394 13.9879286 38.7432309 13.732875 38.8403691 13.5007232 38.9556138 13.2820714 39.0759968 13.0771607 39.2144862 12.8951518 39.3578691 12.7312232 39.5103053 12.5810357 39.6720394 12.4489286 39.8430713 12.3351429 40.0187521 12.2350982 40.1941883 12.1574732 40.3789223 12.0938304 40.5639011 12.0528482 40.7486351 12.0256071 40.9382628 12.0164464 41.0721032 12.0210268 41.2015394 12.0347679 41.3216777 12.0574286 41.4327628 12.08925 41.5389543 12.1256518 41.6314436 12.1666339 41.723933 12.2167768 41.8068798 12.2669196 41.8810181 12.3214018 41.9502628 12.3807054 42.0102096 12.4397679 42.0657521 12.4990714 42.1119968 12.5581339 42.1535926 12.6174375 42.1905394 12.6721607 42.2181883 12.7266429 42.5416564 10.9374107 43.7985819 10.9374107"></polygon>
                            <polyline id="Stroke-24" stroke="#FEFEFE" stroke-width="0.216" points="42.754284 16.8925982 41.4743585 16.8925982 41.5668479 16.3873125 41.5668479 16.34175 41.4927096 16.4326339 41.414167 16.5145982 41.3356245 16.5876429 41.252433 16.6512857 41.1692415 16.7105893 41.08605 16.7604911 41.0028585 16.8014732 40.9150181 16.8424554 40.8271777 16.8745179 40.7395819 16.8971786 40.6517415 16.9198393 40.5592521 16.9335804 40.4667628 16.9473214 40.3789223 16.9562411 40.2866777 16.9608214 40.1941883 16.9608214 39.9539117 16.9427411 39.7322309 16.8925982 39.5286564 16.8152143 39.3439223 16.7105893 39.1775394 16.5784821 39.0297521 16.4237143 38.900316 16.2552054 38.7894755 16.0640357 38.6969862 15.859125 38.6230926 15.6450536 38.5721989 15.4220625 38.5352521 15.1899107 38.5213053 14.9575179 38.5259543 14.7207857 38.5491989 14.4886339 38.5907947 14.2564821 38.6600394 13.9879286 38.7432309 13.732875 38.8403691 13.5007232 38.9556138 13.2820714 39.0759968 13.0771607 39.2144862 12.8951518 39.3578691 12.7312232 39.5103053 12.5810357 39.6720394 12.4489286 39.8430713 12.3351429 40.0187521 12.2350982 40.1941883 12.1574732 40.3789223 12.0938304 40.5639011 12.0528482 40.7486351 12.0256071 40.9382628 12.0164464 41.0721032 12.0210268 41.2015394 12.0347679 41.3216777 12.0574286 41.4327628 12.08925 41.5389543 12.1256518 41.6314436 12.1666339 41.723933 12.2167768 41.8068798 12.2669196 41.8810181 12.3214018 41.9502628 12.3807054 42.0102096 12.4397679 42.0657521 12.4990714 42.1119968 12.5581339 42.1535926 12.6174375 42.1905394 12.6721607 42.2181883 12.7266429 42.5416564 10.9374107 43.7985819 10.9374107 42.754284 16.8925982"></polyline>
                            <polygon id="Fill-25" fill="#FBB331" points="40.6609904 15.7908295 40.7904266 15.7816688 40.9105649 15.7544277 41.0214053 15.7223652 41.1275968 15.6724634 41.2247351 15.6177402 41.3172245 15.549517 41.4048202 15.472133 41.4836074 15.3901688 41.5528521 15.2990438 41.6174479 15.1989991 41.6776394 15.094133 41.7282883 14.9849277 41.7747777 14.871142 41.8117245 14.7527759 41.8440223 14.6298295 41.8670223 14.506883 41.890267 14.3793563 41.9039691 14.2472491 41.9039691 14.1243027 41.8993202 13.997017 41.8856181 13.8786509 41.8670223 13.7648652 41.8347245 13.6554188 41.7977777 13.5507938 41.751533 13.4596687 41.6959904 13.3731241 41.6360436 13.3003205 41.5667989 13.2366777 41.4882564 13.1819545 41.4048202 13.1455527 41.3172245 13.122892 41.2200862 13.1137313 41.0952989 13.122892 40.9798096 13.1409723 40.8736181 13.1773741 40.7671819 13.2229366 40.6746926 13.2822402 40.5824479 13.3550438 40.5039053 13.4324277 40.4253628 13.5189723 40.3558734 13.619017 40.2912777 13.723642 40.2310862 13.8330884 40.1804372 13.9514545 40.1341926 14.0744009 40.0972457 14.1973473 40.0602989 14.3292134 40.0324053 14.4613205 40.0094053 14.6616509 40.0187032 14.8803027 40.0510011 15.1032938 40.1109479 15.3173652 40.2034372 15.5039545 40.3235755 15.654142 40.4762564 15.7544277"></polygon>
                            <polygon id="Fill-26" fill="#FEFEFE" points="12.2828074 15.881858 12.0980734 16.8926705 10.9333926 16.8926705 10.9656904 16.7058402 10.9889351 16.5375723 11.0072862 16.4100455 11.0258819 16.3415813 10.9612862 16.4146259 10.8871479 16.4874295 10.7995521 16.5556527 10.7024138 16.6195366 10.5915734 16.6831795 10.4758394 16.7379027 10.3559457 16.7923848 10.2311585 16.8379473 10.0970734 16.8789295 9.9629883 16.9107509 9.82890319 16.937992 9.69041383 16.9563134 9.55632872 16.9654741 9.42224362 16.9700545 9.29305213 16.9563134 9.16826489 16.937992 9.00653085 16.8972509 8.85849894 16.8516884 8.72930745 16.7923848 8.6135734 16.7241616 8.51203085 16.651358 8.41954149 16.5693937 8.34564787 16.4828491 8.28080745 16.3917241 8.22550957 16.2962598 8.17926489 16.1959741 8.14231809 16.0959295 8.11466915 15.9956437 8.0960734 15.8910188 8.08237128 15.7861527 8.0730734 15.686108 8.0730734 15.5858223 8.08677553 15.4083938 8.11466915 15.2398848 8.16066915 15.0805366 8.22086064 14.9257687 8.29475426 14.7801616 8.37794574 14.6480545 8.47508404 14.5205277 8.58592447 14.406742 8.70141383 14.302117 8.83085 14.2064116 8.96493511 14.119867 9.10342447 14.0470634 9.25145638 13.9831795 9.40389255 13.9332777 9.56097766 13.8922955 9.7227117 13.8650545 9.73200957 13.8650545 9.75500957 13.8604741 9.78755213 13.8558937 9.83844574 13.8513134 9.89374362 13.8421527 9.95833936 13.8375723 10.027584 13.8284116 10.1063713 13.8192509 10.1849138 13.8103313 10.2634564 13.8011705 10.3466479 13.7965902 10.4205415 13.7874295 10.4944351 13.7828491 10.5636798 13.7785098 10.6285202 13.7739295 10.6794138 13.7739295 10.7856053 13.7739295 10.8964457 13.7785098 10.998233 13.7828491 11.0997755 13.7828491 11.182967 13.7874295 11.2478074 13.7920098 11.2938074 13.7965902 11.3077543 13.7965902 11.3170521 13.7647687 11.3447011 13.6828045 11.3679457 13.5870991 11.3772436 13.5005545 11.3586479 13.4005098 11.3170521 13.3093848 11.2615096 13.2274205 11.187616 13.1591973 11.0997755 13.1001348 11.0026372 13.0591527 10.8917968 13.0316705 10.7716585 13.0227509 10.642467 13.0181705 10.503733 13.0135902 10.36035 13.0135902 10.2125628 13.0181705 10.0601266 13.0273312 9.91209468 13.0408313 9.76430745 13.0545723 9.62116915 13.0726527 9.48243511 13.0909741 9.34835 13.1136348 9.2282117 13.1365366 9.11737128 13.1591973 9.01558404 13.1866795 8.93263723 13.2139205 8.86779681 13.245742 8.81690319 13.272983 9.14502021 12.175867 9.24680745 12.1348848 9.34835 12.098483 9.45919043 12.0664205 9.57027553 12.0437598 9.68111596 12.020858 9.80125426 12.0027777 9.92139255 11.9844563 10.0461798 11.9755366 10.175616 11.9663759 10.3094564 11.9617955 10.4481904 11.9572152 10.5915734 11.9572152 10.7393606 11.9572152 10.8917968 11.9572152 11.0535309 11.9617955 11.2152649 11.9663759 11.3447011 11.9755366 11.4834351 11.9981973 11.6265734 12.0300187 11.7746053 12.0710009 11.9177436 12.1257241 12.0564777 12.189367 12.194967 12.2667509 12.3244032 12.3532955 12.4398926 12.4535813 12.5416798 12.5627866 12.6339245 12.685733 12.7034138 12.8221795 12.7494138 12.9680277 12.7773074 13.1227955 12.7773074 13.2958848 12.7494138 13.4778937"></polygon>
                            <polyline id="Stroke-27" stroke="#FEFEFE" stroke-width="0.216" points="12.2828074 15.881858 12.0980734 16.8926705 10.9333926 16.8926705 10.9656904 16.7058402 10.9889351 16.5375723 11.0072862 16.4100455 11.0258819 16.3415813 10.9612862 16.4146259 10.8871479 16.4874295 10.7995521 16.5556527 10.7024138 16.6195366 10.5915734 16.6831795 10.4758394 16.7379027 10.3559457 16.7923848 10.2311585 16.8379473 10.0970734 16.8789295 9.9629883 16.9107509 9.82890319 16.937992 9.69041383 16.9563134 9.55632872 16.9654741 9.42224362 16.9700545 9.29305213 16.9563134 9.16826489 16.937992 9.00653085 16.8972509 8.85849894 16.8516884 8.72930745 16.7923848 8.6135734 16.7241616 8.51203085 16.651358 8.41954149 16.5693937 8.34564787 16.4828491 8.28080745 16.3917241 8.22550957 16.2962598 8.17926489 16.1959741 8.14231809 16.0959295 8.11466915 15.9956437 8.0960734 15.8910188 8.08237128 15.7861527 8.0730734 15.686108 8.0730734 15.5858223 8.08677553 15.4083938 8.11466915 15.2398848 8.16066915 15.0805366 8.22086064 14.9257687 8.29475426 14.7801616 8.37794574 14.6480545 8.47508404 14.5205277 8.58592447 14.406742 8.70141383 14.302117 8.83085 14.2064116 8.96493511 14.119867 9.10342447 14.0470634 9.25145638 13.9831795 9.40389255 13.9332777 9.56097766 13.8922955 9.7227117 13.8650545 9.73200957 13.8650545 9.75500957 13.8604741 9.78755213 13.8558937 9.83844574 13.8513134 9.89374362 13.8421527 9.95833936 13.8375723 10.027584 13.8284116 10.1063713 13.8192509 10.1849138 13.8103313 10.2634564 13.8011705 10.3466479 13.7965902 10.4205415 13.7874295 10.4944351 13.7828491 10.5636798 13.7785098 10.6285202 13.7739295 10.6794138 13.7739295 10.7856053 13.7739295 10.8964457 13.7785098 10.998233 13.7828491 11.0997755 13.7828491 11.182967 13.7874295 11.2478074 13.7920098 11.2938074 13.7965902 11.3077543 13.7965902 11.3170521 13.7647687 11.3447011 13.6828045 11.3679457 13.5870991 11.3772436 13.5005545 11.3586479 13.4005098 11.3170521 13.3093848 11.2615096 13.2274205 11.187616 13.1591973 11.0997755 13.1001348 11.0026372 13.0591527 10.8917968 13.0316705 10.7716585 13.0227509 10.642467 13.0181705 10.503733 13.0135902 10.36035 13.0135902 10.2125628 13.0181705 10.0601266 13.0273312 9.91209468 13.0408313 9.76430745 13.0545723 9.62116915 13.0726527 9.48243511 13.0909741 9.34835 13.1136348 9.2282117 13.1365366 9.11737128 13.1591973 9.01558404 13.1866795 8.93263723 13.2139205 8.86779681 13.245742 8.81690319 13.272983 9.14502021 12.175867 9.24680745 12.1348848 9.34835 12.098483 9.45919043 12.0664205 9.57027553 12.0437598 9.68111596 12.020858 9.80125426 12.0027777 9.92139255 11.9844563 10.0461798 11.9755366 10.175616 11.9663759 10.3094564 11.9617955 10.4481904 11.9572152 10.5915734 11.9572152 10.7393606 11.9572152 10.8917968 11.9572152 11.0535309 11.9617955 11.2152649 11.9663759 11.3447011 11.9755366 11.4834351 11.9981973 11.6265734 12.0300187 11.7746053 12.0710009 11.9177436 12.1257241 12.0564777 12.189367 12.194967 12.2667509 12.3244032 12.3532955 12.4398926 12.4535813 12.5416798 12.5627866 12.6339245 12.685733 12.7034138 12.8221795 12.7494138 12.9680277 12.7773074 13.1227955 12.7773074 13.2958848 12.7494138 13.4778937 12.2828074 15.881858"></polyline>
                            <polygon id="Fill-28" fill="#EC1C2D" points="11.1691181 14.6935687 11.1644691 14.670667 11.1461181 14.6480062 11.1182245 14.6342652 11.0719798 14.6253455 11.0213309 14.6161848 10.9611394 14.6116045 10.8918947 14.6116045 10.82265 14.6116045 10.7485117 14.6161848 10.6699691 14.6253455 10.5960755 14.6342652 10.5221819 14.6434259 10.4529372 14.6525866 10.3880968 14.6663277 10.3327989 14.6798277 10.2819053 14.6935687 10.2496074 14.7027295 10.212416 14.7162295 10.161767 14.7345509 10.1108734 14.7572116 10.0506819 14.7846937 9.99073511 14.8165152 9.92613936 14.8483366 9.86594787 14.8847384 9.80135213 14.9303009 9.74116064 14.9758634 9.68586277 15.0303455 9.63496915 15.0850687 9.58872447 15.1443723 9.5564266 15.2080152 9.52853298 15.2808187 9.51483085 15.3536223 9.51018191 15.5086312 9.53318191 15.6315777 9.5794266 15.7224616 9.63961809 15.7909259 9.70886277 15.8362473 9.78740532 15.8637295 9.86129894 15.8772295 9.93543723 15.8818098 10.0739266 15.8772295 10.1987138 15.8637295 10.3188521 15.845408 10.4250436 15.8179259 10.517533 15.7863455 10.6053734 15.7451223 10.683916 15.7043812 10.7531606 15.6542384 10.8133521 15.6086759 10.86865 15.5539527 10.9148947 15.5040509 10.9518415 15.4493277 10.984384 15.3946045 11.012033 15.3401223 11.035033 15.2899795 11.0489798 15.2398366 11.0859266 15.1079705 11.1182245 14.957542 11.1461181 14.8119348"></polygon>
                            <polygon id="Fill-29" fill="#FEFEFE" points="2.56002234 16.8925982 1.30309681 16.8925982 2.35204362 10.91475 4.53777766 10.91475 4.74575638 14.4613929 6.25690532 10.91475 8.53977766 10.91475 7.46758617 16.8925982 6.21066064 16.8925982 7.00562872 12.4262679 6.95473511 12.4262679 5.0738734 16.8925982 3.65521383 16.8925982 3.64591596 16.7060089 3.61361809 16.2096429 3.57202234 15.5040268 3.52577766 14.6935446 3.47953298 13.8784821 3.43793723 13.1637054 3.40563936 12.6446786 3.39634149 12.4262679 3.38263936 12.4262679 3.35474574 12.4262679 3.32709681 12.4262679"></polygon>
                            <polyline id="Stroke-30" stroke="#FEFEFE" stroke-width="0.216" points="2.56002234 16.8925982 1.30309681 16.8925982 2.35204362 10.91475 4.53777766 10.91475 4.74575638 14.4613929 6.25690532 10.91475 8.53977766 10.91475 7.46758617 16.8925982 6.21066064 16.8925982 7.00562872 12.4262679 6.95473511 12.4262679 5.0738734 16.8925982 3.65521383 16.8925982 3.64591596 16.7060089 3.61361809 16.2096429 3.57202234 15.5040268 3.52577766 14.6935446 3.47953298 13.8784821 3.43793723 13.1637054 3.40563936 12.6446786 3.39634149 12.4262679 3.38263936 12.4262679 3.35474574 12.4262679 3.32709681 12.4262679 2.56002234 16.8925982"></polyline>
                            <polygon id="Fill-31" fill="#FEFEFE" points="35.2174043 15.881858 35.0280213 16.8926705 33.8679894 16.8926705 33.8772872 16.7058402 33.8819362 16.5421527 33.8819362 16.4192063 33.8909894 16.364483 33.8310426 16.4327063 33.7615532 16.5009295 33.6786064 16.5648134 33.586117 16.6284562 33.4889787 16.6877598 33.3781383 16.742242 33.2626489 16.7969652 33.1471596 16.8425277 33.0223723 16.8789295 32.8929362 16.9153313 32.7635 16.937992 32.6340638 16.9563134 32.4999787 16.9654741 32.3707872 16.9700545 32.246 16.9563134 32.1212128 16.937992 31.9548298 16.8972509 31.8067979 16.8516884 31.6776064 16.7923848 31.5574681 16.7241616 31.4556809 16.651358 31.3678404 16.5693937 31.2939468 16.4828491 31.2293511 16.3917241 31.1738085 16.2962598 31.1322128 16.1959741 31.095266 16.0959295 31.072266 15.9956437 31.0536702 15.8910188 31.0397234 15.7861527 31.0306702 15.686108 31.0306702 15.5858223 31.0397234 15.4083938 31.067617 15.2398848 31.1092128 15.0805366 31.1691596 14.9257687 31.2384043 14.7801616 31.3262447 14.6480545 31.423383 14.5205277 31.5295745 14.406742 31.6497128 14.302117 31.7745 14.2064116 31.9085851 14.119867 32.0519681 14.0470634 32.1951064 13.9831795 32.3475426 13.9332777 32.4999787 13.8922955 32.6573085 13.8650545 32.6663617 13.8650545 32.6896064 13.8604741 32.7219043 13.8558937 32.7681489 13.8513134 32.8283404 13.8421527 32.8929362 13.8375723 32.9621809 13.8284116 33.0360745 13.8192509 33.1148617 13.8103313 33.1978085 13.8011705 33.2765957 13.7965902 33.3548936 13.7874295 33.4290319 13.7828491 33.4936277 13.7785098 33.5584681 13.7739295 33.609117 13.7739295 33.7202021 13.7739295 33.8310426 13.7785098 33.937234 13.7828491 34.0390213 13.7828491 34.1268617 13.7874295 34.2007553 13.7920098 34.2423511 13.7965902 34.2607021 13.7965902 34.27 13.7647687 34.2839468 13.6828045 34.2976489 13.5870991 34.3069468 13.5005545 34.2885957 13.4005098 34.2516489 13.3093848 34.1914574 13.2274205 34.1222128 13.1591973 34.0390213 13.1001348 33.941883 13.0591527 33.8403404 13.0316705 33.7292553 13.0227509 33.5998191 13.0181705 33.4613298 13.0135902 33.3179468 13.0135902 33.1701596 13.0181705 33.0177234 13.0273312 32.8696915 13.0408313 32.7219043 13.0545723 32.578766 13.0726527 32.4400319 13.0909741 32.3059468 13.1136348 32.1858085 13.1365366 32.0749681 13.1591973 31.9731809 13.1866795 31.890234 13.2139205 31.8253936 13.245742 31.7745 13.272983 32.0979681 12.175867 32.1997553 12.1348848 32.3059468 12.098483 32.412383 12.0664205 32.5232234 12.0437598 32.6387128 12.020858 32.7542021 12.0027777 32.8743404 11.9844563 32.9991277 11.9755366 33.1285638 11.9663759 33.2626489 11.9617955 33.3964894 11.9572152 33.5398723 11.9572152 33.6832553 11.9572152 33.8310426 11.9572152 33.9881277 11.9617955 34.1452128 11.9663759 34.2746489 11.9755366 34.413383 11.9981973 34.5565213 12.0300187 34.7043085 12.0710009 34.8476915 12.1257241 34.9908298 12.189367 35.1295638 12.2667509 35.259 12.3532955 35.3744894 12.4535813 35.4806809 12.5627866 35.5731702 12.685733 35.6424149 12.8221795 35.6933085 12.9680277 35.7256064 13.1227955 35.7256064 13.2958848 35.7026064 13.4778937"></polygon>
                            <polygon id="Fill-32" fill="#FEFEFE" points="35.0278989 16.9245161 35.0555479 16.897275 35.2449309 15.8864625 35.189633 15.8773018 35.0000053 16.8881143 35.0278989 16.8606321 35.0278989 16.9245161 35.0508989 16.9199357 35.0555479 16.897275"></polygon>
                            <path d="M33.8680628,16.860608 L33.8957117,16.8924295 L33.8404138,16.8924295 L33.8680628,16.924733 L35.02785,16.924733 L35.02785,16.860608 L33.8680628,16.860608 Z M33.8355202,16.924733 L33.8680628,16.924733 L33.8404138,16.8924295 L33.8355202,16.924733 Z" id="Fill-33" fill="#FEFEFE"></path>
                            <path d="M33.8719043,16.3492232 L33.9139894,16.3827321 L33.8726383,16.3460893 L33.8719043,16.3492232 Z M33.8719043,16.3494643 L33.8719043,16.3492232 L33.8679894,16.3460893 L33.8719043,16.3494643 Z M33.8542872,16.4191339 L33.8493936,16.5420804 L33.8493936,16.7060089 L33.8403404,16.8925982 L33.8956383,16.8925982 L33.9049362,16.7060089 L33.9139894,16.5420804 L33.9093404,16.4191339 L33.9093404,16.3827321 L33.8719043,16.3494643 L33.8542872,16.4191339 Z" id="Fill-34" fill="#FEFEFE"></path>
                            <polygon id="Fill-35" fill="#FEFEFE" points="32.1165394 16.96545 32.1165394 16.96545 32.2459755 16.9837714 32.3707628 16.9972714 32.5001989 16.9926911 32.6340394 16.9837714 32.7681245 16.96545 32.8975606 16.9427893 33.0269968 16.9061464 33.1561883 16.8697446 33.2719223 16.8244232 33.3920606 16.7697 33.5029011 16.7149768 33.5997947 16.6513339 33.696933 16.58745 33.7801245 16.5238071 33.8540181 16.4510036 33.9142096 16.3827804 33.8679649 16.3461375 33.8080181 16.4146018 33.7431777 16.4782446 33.6599862 16.5421286 33.5721457 16.6057714 33.4752521 16.6604946 33.364167 16.7149768 33.2533266 16.7697 33.1378372 16.8152625 33.0176989 16.8516643 32.8882628 16.8880661 32.7588266 16.9107268 32.6340394 16.9290482 32.5001989 16.9382089 32.3707628 16.9427893 32.2459755 16.9290482 32.1258372 16.9107268"></polygon>
                            <polygon id="Fill-36" fill="#FEFEFE" points="30.9982745 15.5858946 30.9982745 15.5858946 31.0029234 15.6861804 31.0122213 15.786225 31.0259234 15.8954304 31.0445191 16.0002964 31.0675191 16.1003411 31.104466 16.2052071 31.1460617 16.3098321 31.2062532 16.4055375 31.2708489 16.5010018 31.3447426 16.5875464 31.4372319 16.6740911 31.5436681 16.7468946 31.6638064 16.8196982 31.7976468 16.8790018 31.9503277 16.9245643 32.116466 16.9655464 32.1257638 16.9108232 31.9593809 16.8698411 31.8162426 16.8242786 31.6914553 16.764975 31.571317 16.7013321 31.4741787 16.6285286 31.3909872 16.5511446 31.3170936 16.4646 31.2524979 16.3780554 31.2016043 16.2825911 31.1600085 16.1868857 31.1230617 16.0911804 31.1000617 15.9911357 31.081466 15.8865107 31.0675191 15.786225 31.0582213 15.6861804 31.0628702 15.5858946"></polygon>
                            <polygon id="Fill-37" fill="#FEFEFE" points="32.6572351 13.8376205 32.6572351 13.8376205 32.4955011 13.8648616 32.338416 13.9058437 32.1859798 13.9559866 32.0379479 14.0196295 31.8948096 14.0926741 31.7560755 14.183558 31.6312883 14.2792634 31.51115 14.3884687 31.4003096 14.5022545 31.3031713 14.6297812 31.2109266 14.7664687 31.1414372 14.9166562 31.0814904 15.0714241 31.0398947 15.2353527 31.0122457 15.408442 30.9982989 15.5858705 31.0628947 15.5858705 31.0675436 15.408442 31.0951926 15.2445134 31.1367883 15.0897455 31.1969798 14.9349777 31.2662245 14.7937098 31.349416 14.666183 31.4465543 14.5386562 31.5480968 14.4248705 31.6682351 14.3248259 31.7930223 14.2291205 31.9224585 14.1471562 32.0655968 14.0743527 32.2043309 14.0107098 32.356767 13.960567 32.5047989 13.9195848 32.6572351 13.8921027"></polygon>
                            <polygon id="Fill-38" fill="#FEFEFE" points="33.5584436 13.7419634 33.4936032 13.7511241 33.4290074 13.7557045 33.3548691 13.7602848 33.2765713 13.7692045 33.1980287 13.7737848 33.1145926 13.7829455 33.03605 13.7921062 32.9621564 13.801267 32.8929117 13.8104277 32.828316 13.814767 32.7681245 13.8239277 32.7218798 13.828508 32.684933 13.8330884 32.6663372 13.8376687 32.657284 13.8376687 32.657284 13.8921509 32.6663372 13.8921509 32.6939862 13.8878116 32.7218798 13.8832312 32.7681245 13.8786509 32.828316 13.8694902 32.8929117 13.8649098 32.9621564 13.8559902 33.03605 13.8468295 33.1145926 13.8376687 33.1980287 13.828508 33.2765713 13.8239277 33.3548691 13.814767 33.4290074 13.8104277 33.4936032 13.8058473 33.5584436 13.8058473 33.6090926 13.8058473 33.6090926 13.7419634"></polygon>
                            <path d="M33.6090926,13.7419634 L33.6090926,13.8058473 L33.7201777,13.8058473 L33.8310181,13.8058473 L33.9372096,13.814767 L34.0389968,13.814767 L34.1268372,13.814767 L34.2004862,13.8193473 L34.2423266,13.8239277 L34.2606777,13.8239277 L34.2883266,13.801267 L34.2330287,13.7921062 L34.2606777,13.7692045 L34.2423266,13.7692045 L34.2004862,13.7648652 L34.1268372,13.7602848 L34.0389968,13.7511241 L33.9372096,13.7511241 L33.8310181,13.7511241 L33.7201777,13.7419634 L33.6090926,13.7419634 Z M34.2606777,13.8239277 L34.2839223,13.828508 L34.2883266,13.801267 L34.2606777,13.8239277 Z" id="Fill-39" fill="#FEFEFE"></path>
                            <polygon id="Fill-40" fill="#FEFEFE" points="34.3346936 13.5006991 34.2791511 13.5006991 34.2745021 13.5006991 34.2698532 13.5872437 34.2561511 13.6781277 34.2424489 13.760092 34.2329064 13.7921545 34.2884489 13.8013152 34.2977468 13.7692527 34.3114489 13.6872884 34.3253957 13.5872437 34.3393426 13.5006991"></polygon>
                            <polygon id="Fill-41" fill="#FEFEFE" points="33.7293043 13.0499679 33.7293043 13.0545482 33.8354957 13.0591286 33.932634 13.0863696 34.0251234 13.1273518 34.103666 13.182075 34.1682617 13.2457179 34.2238043 13.3231018 34.2607511 13.4050661 34.2791021 13.5005304 34.3346447 13.5005304 34.3160489 13.3959054 34.2791021 13.2958607 34.2145064 13.2093161 34.1406128 13.1365125 34.0527723 13.0726286 33.9512298 13.0316464 33.8447936 13.0044054 33.7293043 12.9909054 33.7293043 12.9952446"></polygon>
                            <polygon id="Fill-42" fill="#FEFEFE" points="31.7468511 13.2685232 31.7930957 13.2957643 31.8393404 13.2731036 31.8992872 13.2412821 31.9778298 13.2138 32.079617 13.1865589 32.1904574 13.1636571 32.3105957 13.1409964 32.4446809 13.1183357 32.578766 13.1000143 32.7219043 13.0819339 32.8696915 13.0681929 33.0177234 13.0544518 33.1701596 13.0452911 33.3179468 13.0452911 33.4613298 13.0452911 33.5998191 13.0452911 33.7292553 13.0498714 33.7292553 12.9953893 33.5998191 12.9908089 33.4613298 12.9816482 33.3179468 12.9816482 33.1701596 12.9908089 33.0177234 12.9999696 32.8696915 13.0134696 32.7219043 13.0272107 32.578766 13.0452911 32.435383 13.0636125 32.3012979 13.0865143 32.1811596 13.109175 32.0703191 13.1318357 31.9687766 13.1593179 31.8809362 13.1865589 31.8114468 13.2183804 31.7561489 13.2502018 31.8023936 13.2776839"></polygon>
                            <polygon id="Fill-43" fill="#FEFEFE" points="32.0888415 12.1485054 32.0702457 12.1711661 31.7467777 13.2685232 31.8023202 13.2776839 32.1257883 12.1803268 32.1071926 12.2029875 32.0888415 12.1485054 32.0748947 12.1530857 32.0702457 12.1711661"></polygon>
                            <polygon id="Fill-44" fill="#FEFEFE" points="34.1451883 11.9390384 34.1451883 11.9390384 33.9881032 11.9298777 33.8310181 11.9252973 33.6832309 11.9252973 33.5398479 11.9252973 33.3967096 11.9252973 33.2626245 11.934458 33.1285394 11.9390384 32.9991032 11.9481991 32.874316 11.9571187 32.7495287 11.9754402 32.6340394 11.9937616 32.51855 12.0164223 32.4077096 12.0393241 32.2968691 12.0711455 32.190433 12.1075473 32.0888904 12.1485295 32.1072415 12.2030116 32.2090287 12.1622705 32.3152202 12.1256277 32.4170074 12.0938062 32.5278479 12.0711455 32.6433372 12.0482437 32.7588266 12.0301634 32.874316 12.011842 32.9991032 12.0026812 33.1285394 11.9937616 33.2626245 11.9891812 33.3967096 11.9891812 33.5398479 11.9891812 33.6832309 11.9891812 33.8310181 11.9891812 33.9881032 11.9937616 34.1451883 11.9937616"></polygon>
                            <polygon id="Fill-45" fill="#FEFEFE" points="35.7302309 13.4824741 35.7302309 13.4824741 35.7532309 13.2958848 35.7532309 13.1227955 35.720933 12.9634473 35.670284 12.8132598 35.5963904 12.671992 35.5039011 12.5444652 35.392816 12.4306795 35.2773266 12.3306348 35.1434862 12.2440902 35.0047521 12.1621259 34.8569649 12.098483 34.7135819 12.0437598 34.5611457 12.0027777 34.4177628 11.9709563 34.2746245 11.9480545 34.1451883 11.9391348 34.1451883 11.993617 34.2746245 12.0027777 34.4087096 12.0256795 34.5518479 12.0575009 34.6952309 12.098483 34.8383691 12.1529652 34.9771032 12.2168491 35.1155926 12.2896527 35.2403798 12.3761973 35.3558691 12.476242 35.4576564 12.580867 35.5501457 12.699233 35.6147415 12.8313402 35.6656351 12.972608 35.697933 13.1227955 35.697933 13.2958848 35.674933 13.4733134"></polygon>
                            <polygon id="Fill-46" fill="#FEFEFE" points="35.2450043 15.8864384 35.2450043 15.8864384 35.7302064 13.4824741 35.6749085 13.4733134 35.1894617 15.8772777"></polygon>
                            <polygon id="Fill-47" fill="#FBB331" points="34.0989926 14.6935687 34.0896947 14.6663277 34.0713436 14.6434259 34.0390457 14.6299259 33.9928011 14.6161848 33.9419074 14.6116045 33.8819606 14.6070241 33.8124713 14.6070241 33.7432266 14.6116045 33.669333 14.6207652 33.5951947 14.6299259 33.5213011 14.6388455 33.4520564 14.6480062 33.3828117 14.6617473 33.3226202 14.670667 33.2626734 14.684408 33.2164287 14.6935687 33.1838862 14.6981491 33.1469394 14.7116491 33.1009394 14.7253902 33.0500457 14.7434705 32.9898543 14.7709527 32.9345564 14.7981937 32.869716 14.8300152 32.8097691 14.8709973 32.7495777 14.9122205 32.6896309 14.9621223 32.6387372 15.0122652 32.5878436 15.0715687 32.5462479 15.1352116 32.51395 15.2034348 32.4863011 15.2762384 32.4723543 15.3536223 32.4677053 15.5086312 32.49095 15.6315777 32.5278968 15.7224616 32.5831947 15.7909259 32.652684 15.8362473 32.7312266 15.8637295 32.8097691 15.8772295 32.8883117 15.8818098 33.0268011 15.8772295 33.1562372 15.8637295 33.2763755 15.8408277 33.3828117 15.8090062 33.4843543 15.7726045 33.5721947 15.7316223 33.6553862 15.6860598 33.7292798 15.6315777 33.7941202 15.5811937 33.8494181 15.5221312 33.9003117 15.467408 33.9419074 15.4083455 33.9742053 15.3536223 33.9972053 15.2991402 34.0158011 15.244417 34.0297479 15.1942741 34.0480989 15.0669884 34.0713436 14.9348812 34.0896947 14.8073545"></polygon>
                            <polygon id="Fill-48" fill="#FEFEFE" points="43.6184234 16.26885 43.6277213 16.164225 43.6646681 16.0412786 43.7295085 15.9320732 43.8078064 15.8363679 43.9049447 15.7589839 44.0157851 15.7042607 44.1359234 15.6678589 44.2653596 15.6543589 44.3947957 15.6678589 44.514934 15.7042607 44.6257745 15.7589839 44.7229128 15.8363679 44.8014553 15.9320732 44.8660511 16.0412786 44.9032426 16.164225 44.9122957 16.26885 44.7738064 16.26885 44.7691574 16.1868857 44.7415085 16.0868411 44.6950191 15.9957161 44.6350723 15.9183321 44.5611787 15.8544482 44.4733383 15.8091268 44.3717957 15.7770643 44.2653596 15.7679036 44.1591681 15.7770643 44.0573809 15.8091268 43.9695404 15.8544482 43.8956468 15.9183321 43.8357 15.9957161 43.7894553 16.0868411 43.7618064 16.1868857 43.7525085 16.26885"></polygon>
                            <polygon id="Fill-49" fill="#FEFEFE" points="44.0343809 16.26885 44.0343809 15.9957161 44.2886043 15.9957161 44.3439021 16.0002964 44.3947957 16.0094571 44.4317426 16.0229571 44.4640404 16.0412786 44.4872851 16.0685196 44.5056362 16.0960018 44.514934 16.1278232 44.519583 16.1596446 44.514934 16.2006268 44.5056362 16.2324482 44.491934 16.2596893 44.4826362 16.26885 44.2886043 16.26885 44.3069553 16.2642696 44.3392532 16.2596893 44.3671468 16.2507696 44.3901468 16.2416089 44.4087426 16.2278679 44.4180404 16.2141268 44.4270936 16.1914661 44.4270936 16.1596446 44.4224447 16.1367429 44.4133915 16.1186625 44.3994447 16.1095018 44.3854979 16.1003411 44.3624979 16.0960018 44.3392532 16.0914214 44.3162532 16.0914214 44.2886043 16.0914214 44.1498702 16.0914214 44.1498702 16.26885"></polygon>
                            <polygon id="Fill-50" fill="#FEFEFE" points="43.6184234 16.26885 43.6137745 16.2960911 43.6277213 16.4281982 43.6646681 16.5511446 43.7295085 16.66035 43.8078064 16.751475 43.9049447 16.8288589 44.0157851 16.8881625 44.1359234 16.9245643 44.2653596 16.9380643 44.3947957 16.9245643 44.514934 16.8881625 44.6257745 16.8288589 44.7229128 16.751475 44.8014553 16.66035 44.8660511 16.5511446 44.9032426 16.4281982 44.9169447 16.2960911 44.9122957 16.26885 44.7738064 16.26885 44.7784553 16.2960911 44.7691574 16.4055375 44.7415085 16.5055821 44.6950191 16.5921268 44.6350723 16.6695107 44.5611787 16.7331536 44.4733383 16.7832964 44.3717957 16.8153589 44.2653596 16.8242786 44.1591681 16.8153589 44.0573809 16.7832964 43.9695404 16.7331536 43.8956468 16.6695107 43.8357 16.5921268 43.7894553 16.5055821 43.7618064 16.4055375 43.7525085 16.2960911 43.7525085 16.26885"></polygon>
                            <polygon id="Fill-51" fill="#FEFEFE" points="44.0343809 16.26885 44.0343809 16.5465643 44.1498702 16.5465643 44.1498702 16.3189929 44.2653596 16.3189929 44.4040936 16.5465643 44.496583 16.5465643 44.3578489 16.3189929 44.3901468 16.3189929 44.4224447 16.3098321 44.4503383 16.3006714 44.4733383 16.2825911 44.4826362 16.26885 44.2886043 16.26885 44.2653596 16.2734304 44.1498702 16.2734304 44.1498702 16.26885"></polygon>
                            <path d="M44.2654085,16.8243509 L44.2654085,16.8243509 L44.3718447,16.8151902 L44.4733872,16.7833688 L44.5612277,16.7332259 L44.6351213,16.669342 L44.6950681,16.5921991 L44.7413128,16.5056545 L44.7692064,16.4053688 L44.7782596,16.2961634 L44.7692064,16.186958 L44.7413128,16.0866723 L44.6950681,15.9957884 L44.6351213,15.9184045 L44.5612277,15.8545205 L44.4733872,15.808958 L44.3718447,15.7771366 L44.2654085,15.7679759 L44.159217,15.7771366 L44.0574298,15.808958 L43.9695894,15.8545205 L43.8956957,15.9184045 L43.8357489,15.9957884 L43.7895043,16.0866723 L43.7616106,16.186958 L43.7525574,16.2961634 L43.7616106,16.4053688 L43.7895043,16.5056545 L43.8357489,16.5921991 L43.8956957,16.669342 L43.9695894,16.7332259 L44.0574298,16.7833688 L44.159217,16.8151902 L44.2654085,16.8243509 M44.2654085,16.2735027 L44.2654085,16.2735027 L44.3070043,16.264342 L44.3393021,16.2597616 L44.3671957,16.2506009 L44.3901957,16.2416813 L44.4087915,16.2279402 L44.4178447,16.2141991 L44.4271426,16.1915384 L44.4271426,16.1594759 L44.4224936,16.1368152 L44.4131957,16.1187348 L44.3994936,16.1095741 L44.3855468,16.1004134 L44.3625468,16.095833 L44.3393021,16.0912527 L44.3163021,16.0912527 L44.2884085,16.0912527 L44.1499191,16.0912527 L44.1499191,16.2735027 L44.2654085,16.2735027 M44.1499191,16.5466366 L44.0344298,16.5466366 L44.0344298,15.9957884 L44.2884085,15.9957884 L44.3439511,16.0001277 L44.3948447,16.0092884 L44.4317915,16.0230295 L44.4640894,16.0411098 L44.487334,16.068592 L44.5056851,16.095833 L44.514983,16.1276545 L44.5196319,16.1594759 L44.514983,16.2006991 L44.5056851,16.2325205 L44.491983,16.2597616 L44.4733872,16.2824223 L44.4503872,16.3007438 L44.4224936,16.3099045 L44.3901957,16.3188241 L44.3578979,16.3188241 L44.4966319,16.5466366 L44.4041426,16.5466366 L44.2654085,16.3188241 L44.1499191,16.3188241 L44.1499191,16.5466366 M43.6138234,16.2961634 L43.6138234,16.2961634 L43.6277702,16.1640563 L43.664717,16.0411098 L43.7293128,15.9319045 L43.8078553,15.8364402 L43.9049936,15.7590563 L44.015834,15.704333 L44.1359723,15.6679313 L44.2654085,15.6541902 L44.3948447,15.6679313 L44.514983,15.704333 L44.6258234,15.7590563 L44.7229617,15.8364402 L44.8015043,15.9319045 L44.8661,16.0411098 L44.9030468,16.1640563 L44.9169936,16.2961634 L44.9030468,16.4282705 L44.8661,16.551217 L44.8015043,16.6604223 L44.7229617,16.7515473 L44.6258234,16.8289313 L44.514983,16.8879938 L44.3948447,16.9246366 L44.2654085,16.9381366 L44.1359723,16.9246366 L44.015834,16.8879938 L43.9049936,16.8289313 L43.8078553,16.7515473 L43.7293128,16.6604223 L43.664717,16.551217 L43.6277702,16.4282705 L43.6138234,16.2961634" id="Stroke-52" stroke="#FEFEFE" stroke-width="0.216"></path>
                            <polygon id="Fill-53" fill="#FEFEFE" points="35.5639213 16.8925982 36.8670915 16.8925982 37.3339426 14.3020446 37.3522936 14.2017589 37.3799426 14.1017143 37.4078362 14.0014286 37.444783 13.9013839 37.4910277 13.8010982 37.5463255 13.7056339 37.606517 13.6145089 37.6804106 13.5279643 37.7636021 13.4505804 37.8558468 13.3777768 37.962283 13.3095536 38.0824213 13.2548304 38.2165064 13.2092679 38.3642936 13.1728661 38.5260277 13.145625 38.7063574 13.1364643 38.7709532 13.1364643 38.8079 13.1364643 38.8218468 13.1364643 39.0295809 11.9663036 38.9003894 11.9754643 38.7756021 11.9892054 38.6601128 12.0118661 38.5490277 12.0436875 38.4474851 12.0800893 38.3503468 12.1256518 38.2581021 12.1757946 38.1702617 12.2305179 38.0870702 12.2941607 38.0085277 12.3580446 37.934634 12.4308482 37.8604957 12.5036518 37.7912511 12.5810357 37.7220064 12.6675804 37.6527617 12.7495446 37.5879213 12.8404286 37.7266553 12.0164464 36.428134 12.0164464"></polygon>
                            <polyline id="Stroke-54" stroke="#FEFEFE" stroke-width="0.216" points="35.5639213 16.8925982 36.8670915 16.8925982 37.3339426 14.3020446 37.3522936 14.2017589 37.3799426 14.1017143 37.4078362 14.0014286 37.444783 13.9013839 37.4910277 13.8010982 37.5463255 13.7056339 37.606517 13.6145089 37.6804106 13.5279643 37.7636021 13.4505804 37.8558468 13.3777768 37.962283 13.3095536 38.0824213 13.2548304 38.2165064 13.2092679 38.3642936 13.1728661 38.5260277 13.145625 38.7063574 13.1364643 38.7709532 13.1364643 38.8079 13.1364643 38.8218468 13.1364643 39.0295809 11.9663036 38.9003894 11.9754643 38.7756021 11.9892054 38.6601128 12.0118661 38.5490277 12.0436875 38.4474851 12.0800893 38.3503468 12.1256518 38.2581021 12.1757946 38.1702617 12.2305179 38.0870702 12.2941607 38.0085277 12.3580446 37.934634 12.4308482 37.8604957 12.5036518 37.7912511 12.5810357 37.7220064 12.6675804 37.6527617 12.7495446 37.5879213 12.8404286 37.7266553 12.0164464 36.428134 12.0164464 35.5639213 16.8925982"></polyline>
                            <polygon id="Fill-55" fill="#FEFEFE" points="23.3272362 16.8925982 24.6304064 16.8925982 24.6534064 16.8925982 25.0970128 14.3020446 25.1156085 14.2017589 25.1386085 14.1062946 25.1618532 14.0105893 25.1941511 13.9194643 25.2310979 13.8285804 25.2773426 13.7420357 25.3328851 13.6600714 25.3974809 13.5826875 25.4713745 13.5142232 25.554566 13.446 25.6563532 13.3915179 25.7671936 13.341375 25.8966298 13.3003929 26.0397681 13.2639911 26.1968532 13.2410893 26.377183 13.2275893 26.3908851 13.2275893 26.4094809 13.2321696 26.4327255 13.2365089 26.4557255 13.2365089 26.4787255 13.2410893 26.4973213 13.2456696 26.5110234 13.25025 26.5156723 13.25025 26.5203213 13.2321696 26.5342681 13.1774464 26.5526191 13.0954821 26.5758638 12.9951964 26.6081617 12.8768304 26.6404596 12.7495446 26.6820553 12.6220179 26.7236511 12.4944911 26.7605979 12.4079464 26.8068426 12.3214018 26.8530872 12.2350982 26.8993319 12.1574732 26.9409277 12.08925 26.9732255 12.0347679 26.9964702 12.0027054 27.0055234 11.9892054 27.0011191 11.9892054 26.9825234 11.984625 26.9592787 11.9800446 26.9269809 11.9754643 26.894683 11.9754643 26.8577362 11.9708839 26.8254383 11.9663036 26.7931404 11.9663036 26.6497574 11.9754643 26.5203213 11.9892054 26.400183 12.0118661 26.2893426 12.0393482 26.1831511 12.07575 26.0860128 12.1210714 25.9981723 12.1666339 25.9149809 12.2213571 25.8364383 12.2804196 25.7625447 12.3488839 25.6933 12.4171071 25.6238106 12.4944911 25.554566 12.571875 25.4899702 12.6584196 25.4207255 12.7495446 25.3512362 12.8404286 25.5176191 12.0164464 24.1914489 12.0164464"></polygon>
                            <polyline id="Stroke-56" stroke="#FEFEFE" stroke-width="0.216" points="23.3272362 16.8925982 24.6304064 16.8925982 24.6534064 16.8925982 25.0970128 14.3020446 25.1156085 14.2017589 25.1386085 14.1062946 25.1618532 14.0105893 25.1941511 13.9194643 25.2310979 13.8285804 25.2773426 13.7420357 25.3328851 13.6600714 25.3974809 13.5826875 25.4713745 13.5142232 25.554566 13.446 25.6563532 13.3915179 25.7671936 13.341375 25.8966298 13.3003929 26.0397681 13.2639911 26.1968532 13.2410893 26.377183 13.2275893 26.3908851 13.2275893 26.4094809 13.2321696 26.4327255 13.2365089 26.4557255 13.2365089 26.4787255 13.2410893 26.4973213 13.2456696 26.5110234 13.25025 26.5156723 13.25025 26.5203213 13.2321696 26.5342681 13.1774464 26.5526191 13.0954821 26.5758638 12.9951964 26.6081617 12.8768304 26.6404596 12.7495446 26.6820553 12.6220179 26.7236511 12.4944911 26.7605979 12.4079464 26.8068426 12.3214018 26.8530872 12.2350982 26.8993319 12.1574732 26.9409277 12.08925 26.9732255 12.0347679 26.9964702 12.0027054 27.0055234 11.9892054 27.0011191 11.9892054 26.9825234 11.984625 26.9592787 11.9800446 26.9269809 11.9754643 26.894683 11.9754643 26.8577362 11.9708839 26.8254383 11.9663036 26.7931404 11.9663036 26.6497574 11.9754643 26.5203213 11.9892054 26.400183 12.0118661 26.2893426 12.0393482 26.1831511 12.07575 26.0860128 12.1210714 25.9981723 12.1666339 25.9149809 12.2213571 25.8364383 12.2804196 25.7625447 12.3488839 25.6933 12.4171071 25.6238106 12.4944911 25.554566 12.571875 25.4899702 12.6584196 25.4207255 12.7495446 25.3512362 12.8404286 25.5176191 12.0164464 24.1914489 12.0164464 23.3272362 16.8925982"></polyline>
                            <polygon id="Fill-57" fill="#FBB331" points="43.6277213 21.6822777 43.6277213 21.6641973 43.6646681 21.5455902 43.7295085 21.4409652 43.8078064 21.3498402 43.9049447 21.2770366 44.0157851 21.2225545 44.1359234 21.190733 44.2653596 21.176992 44.3947957 21.190733 44.514934 21.2225545 44.6257745 21.2770366 44.7229128 21.3498402 44.8014553 21.4409652 44.8662957 21.5455902 44.9032426 21.6641973 44.9032426 21.6822777 44.7691574 21.6822777 44.7415085 21.5865723 44.6952638 21.5002688 44.6350723 21.4226438 44.5611787 21.3590009 44.4733383 21.308858 44.3717957 21.2770366 44.2653596 21.2678759 44.1591681 21.2770366 44.0573809 21.308858 43.9695404 21.3590009 43.8956468 21.4226438 43.8357 21.5002688 43.7894553 21.5865723 43.7618064 21.6822777"></polygon>
                            <polygon id="Fill-58" fill="#FBB331" points="44.2885309 21.5229536 44.0343074 21.5229536 44.0343074 21.6823018 44.1500415 21.6823018 44.1500415 21.5914179 44.2885309 21.5914179 44.3161798 21.5914179 44.3394245 21.5914179 44.3624245 21.5957571 44.3854245 21.6003375 44.3993713 21.6094982 44.4130734 21.6184179 44.4223713 21.6369804 44.4270202 21.6594 44.4270202 21.6823018 44.5195096 21.6823018 44.5148606 21.6413196 44.5055628 21.6094982 44.4872117 21.5822571 44.463967 21.5593554 44.4319138 21.541275 44.394967 21.5321143 44.3440734 21.5229536"></polygon>
                            <polygon id="Fill-59" fill="#FBB331" points="43.6276723 21.6822054 43.6137255 21.7824911 43.7524596 21.7824911 43.7617574 21.6867857 43.7617574 21.6822054"></polygon>
                            <polygon id="Fill-60" fill="#FBB331" points="44.4270447 21.6822054 44.4270447 21.6913661 44.4179915 21.7140268 44.4086936 21.7277679 44.3903426 21.7415089 44.3670979 21.7506696 44.3394489 21.7595893 44.3071511 21.7641696 44.2653106 21.7733304 44.150066 21.7733304 44.150066 21.6822054 44.0343319 21.6822054 44.0343319 21.7824911 44.4732894 21.7824911 44.4918851 21.7641696 44.5055872 21.7415089 44.5148851 21.7140268 44.519534 21.6822054"></polygon>
                            <polygon id="Fill-61" fill="#FBB331" points="44.7690351 21.6822054 44.7690351 21.6867857 44.778333 21.7824911 44.917067 21.7824911 44.9031202 21.6822054"></polygon>
                            <polygon id="Fill-62" fill="#FBB331" points="43.6138479 21.782467 43.6138479 21.796208 43.6277947 21.9280741 43.6647415 22.0510205 43.7293372 22.160467 43.8078798 22.2559313 43.9050181 22.3333152 44.0158585 22.3880384 44.1359968 22.4244402 44.265433 22.4381813 44.3948691 22.4244402 44.5150074 22.3880384 44.6258479 22.3333152 44.7229862 22.2559313 44.8015287 22.160467 44.8661245 22.0510205 44.9030713 21.9280741 44.9170181 21.796208 44.9170181 21.782467 44.778284 21.782467 44.778284 21.796208 44.7689862 21.9054134 44.7413372 22.005458 44.6950926 22.0920027 44.6351457 22.1693866 44.5612521 22.2332705 44.4734117 22.2831723 44.3716245 22.3149938 44.265433 22.3241545 44.1592415 22.3149938 44.0574543 22.2831723 43.9696138 22.2332705 43.8957202 22.1693866 43.8357734 22.0920027 43.7895287 22.005458 43.7616351 21.9054134 43.7525819 21.796208 43.7525819 21.782467"></polygon>
                            <polygon id="Fill-63" fill="#FBB331" points="44.0343809 21.782467 44.0343809 22.0464402 44.1498702 22.0464402 44.1498702 21.8188688 44.2653596 21.8188688 44.4040936 22.0464402 44.496583 22.0464402 44.3578489 21.8188688 44.3901468 21.8188688 44.4224447 21.809708 44.4503383 21.8005473 44.4733383 21.782467"></polygon>
                        </g>
                    </g>
                </g>
            </g>
        </g>
    </g>
</svg>