<?xml version="1.0" encoding="UTF-8"?>
<svg width="19px" height="26px" viewBox="0 0 19 26" version="1.1" xmlns="http://www.w3.org/2000/svg" xmlns:xlink="http://www.w3.org/1999/xlink">
    <!-- Generator: Sketch 52.2 (67145) - http://www.bohemiancoding.com/sketch -->
    <title>Group 7</title>
    <desc>Created with Sketch.</desc>
    <g id="Desktop-/-Tablet" stroke="none" stroke-width="1" fill="none" fill-rule="evenodd">
        <g id="step-#3" transform="translate(-204.000000, -201.000000)">
            <g id="container" transform="translate(163.000000, 95.000000)">
                <g id="Group-9" transform="translate(41.000000, 106.000000)">
                    <g id="Group-11">
                        <g id="Group-7">
                            <g id="Group-3">
                                <path d="M14.400614,14.5071085 L14.400614,10.137761 C14.400614,9.85407366 14.1709879,9.62412444 13.8876992,9.62412444 L12.6983858,9.62412444 L12.6983858,5.50597147 C12.6983858,2.47007947 10.2317771,1.77635684e-15 7.20015101,1.77635684e-15 C4.1685249,1.77635684e-15 1.70191627,2.47007947 1.70191627,5.50597147 L1.70191627,9.59600565 L2.72774592,9.59600565 L2.72774592,5.50597147 C2.72774592,3.03651686 4.73416637,1.02727312 7.20015101,1.02727312 C9.66613566,1.02727312 11.6725561,3.03620443 11.6725561,5.50597147 L11.6725561,9.62412444 L0.51260283,9.62412444 C0.229314108,9.62412444 0,9.85407366 0,10.137761 L0,18.5930811 C0,19.5969219 0.811803143,20.4098673 1.8098655,20.4098673 L8.11179159,20.4098673 C8.37136892,23.1830049 10.7069409,25.3609614 13.5429481,25.3609614 C16.3658515,25.3609614 18.7007995,23.2417419 18.9741045,20.4317375 C18.9912641,20.2549016 18.9999999,20.0746289 18.9999999,19.8959183 C19.0003118,18.5568391 18.5114204,17.2680612 17.6234912,16.2673447 C16.7804889,15.3175545 15.6367263,14.7048773 14.400614,14.5071085 Z M1.02582964,18.5974551 L1.02582964,15.3737921 L1.02582964,15.3731672 L1.02582964,10.6513976 L13.3750964,10.6513976 L13.3750964,14.4399358 C10.6158393,14.5246046 8.36637705,16.6650694 8.11210358,19.3825942 L1.8098655,19.3825942 C1.37744461,19.3829066 1.02582964,19.0304845 1.02582964,18.5974551 L1.02582964,18.5974551 Z M17.9535787,20.3323844 C17.7317524,22.6137556 15.8357771,24.3340007 13.54326,24.3340007 C11.0997388,24.3340007 9.1117259,22.3431903 9.1117259,19.8962308 C9.1117259,17.4492712 11.0997388,15.4584609 13.54326,15.4584609 C14.8080755,15.4584609 16.0157965,16.0020908 16.8569269,16.949694 C17.5776284,17.7620146 17.9747942,18.808346 17.9747942,19.8962308 C17.9744822,20.0418236 17.9676184,20.1886662 17.9535787,20.3323844 L17.9535787,20.3323844 Z" id="Shape" fill="#6B6B6B"></path>
                                <rect id="Rectangle-163" fill="#7ED321" x="8" y="14.3500061" width="11" height="11" rx="5.5"></rect>
                            </g>
                            <path d="M16.26851,18.1138119 C16.4688089,18.3143926 16.4688089,18.6396333 16.26851,18.840214 L12.9489153,22.1644798 C12.8487659,22.2647702 12.7174173,22.3150716 12.5863806,22.3150716 C12.455344,22.3150716 12.3239954,22.2647702 12.2238459,22.1644798 L10.8180101,20.7566657 C10.6177112,20.556085 10.6177112,20.2308444 10.8180101,20.0302637 C11.0183089,19.829683 11.3430926,19.829683 11.5433914,20.0302637 L12.5863806,21.0747205 L15.5434407,18.1134995 C15.7437395,17.9132312 16.0682112,17.9132312 16.26851,18.1138119 L16.26851,18.1138119 Z" id="Path" fill="#FFFFFF"></path>
                        </g>
                    </g>
                </g>
            </g>
        </g>
    </g>
</svg>