<?xml version="1.0" encoding="UTF-8"?>
<svg width="49px" height="15px" viewBox="0 0 49 15" version="1.1" xmlns="http://www.w3.org/2000/svg" xmlns:xlink="http://www.w3.org/1999/xlink">
    <!-- Generator: Sketch 52.2 (67145) - http://www.bohemiancoding.com/sketch -->
    <title>visa card</title>
    <desc>Created with Sketch.</desc>
    <g id="Desktop-/-Tablet" stroke="none" stroke-width="1" fill="none" fill-rule="evenodd">
        <g id="step-#3-(detect-visa)" transform="translate(-462.000000, -369.000000)">
            <g id="container" transform="translate(162.000000, 95.000000)">
                <g id="Group-7" transform="translate(285.000000, 267.000000)">
                    <g id="visa-card" transform="translate(15.000000, 7.000000)">
                        <g id="visa-logo">
                            <polygon id="Fill-1" fill="#00579F" points="19.7142034 0.284 17.2374761 14.7851111 21.1972886 14.7851111 23.6756864 0.284"></polygon>
                            <g id="Group-10">
                                <path d="M35.5651187,0.641 C34.7802835,0.347111111 33.5505506,0.0321111111 32.0145676,0.0321111111 C28.1004142,0.0321111111 25.3427722,1.99877778 25.3193858,4.81738889 C25.2973915,6.901 27.2880165,8.0635 28.7905903,8.75711111 C30.3324199,9.46766667 30.8508176,9.921 30.843579,10.5557222 C30.8338347,11.5276667 29.6121756,11.9718333 28.4734824,11.9718333 C26.8879426,11.9718333 26.0457551,11.7521111 24.7447494,11.2107222 L24.2341472,10.9801667 L23.6781642,14.2262778 C24.603596,14.631 26.3144199,14.9818333 28.0909483,14.9998889 C32.2551131,14.9998889 34.9584653,13.0557222 34.9893687,10.0457222 C35.0041244,8.39627778 33.9486756,7.14072222 31.6632153,6.106 C30.2786869,5.43516667 29.4306528,4.98738889 29.4395619,4.30822222 C29.4395619,3.70544444 30.1573006,3.061 31.7080392,3.061 C33.0037551,3.041 33.9419937,3.32266667 34.673096,3.61655556 L35.0280676,3.78377778 L35.5651187,0.641" id="Fill-2" fill="#00579F"></path>
                                <path d="M40.8385767,9.64436111 C41.1662642,8.80880556 42.4168778,5.59075 42.4168778,5.59075 C42.3934915,5.62936111 42.7420597,4.75130556 42.9422358,4.20686111 L43.2100653,5.45713889 C43.2100653,5.45713889 43.9684517,8.91852778 44.1268665,9.64436111 L40.8385767,9.64436111 Z M45.7235426,0.297972222 L42.6624347,0.297972222 C41.7141733,0.297972222 41.0045085,0.556027778 40.5880085,1.50047222 L34.7046676,14.7896389 L38.8643778,14.7896389 C38.8643778,14.7896389 39.5448097,13.0026944 39.6984915,12.6104722 C40.1531335,12.6104722 44.1942415,12.6165833 44.7719403,12.6165833 C44.8905426,13.1240833 45.2538665,14.7896389 45.2538665,14.7896389 L48.9297017,14.7896389 L45.7235426,0.297972222 L45.7235426,0.297972222 Z" id="Fill-4" fill="#00579F"></path>
                                <path d="M13.9148864,0.294583333 L10.0363693,10.1831944 L9.62321023,8.17347222 C8.90129545,5.85680556 6.65175,3.34708333 4.13660227,2.09069444 L7.68297727,14.7723611 L11.8744261,14.7676389 L18.1110682,0.294583333 L13.9148864,0.294583333" id="Fill-6" fill="#00579F"></path>
                                <path d="M6.43848864,0.285638889 L0.0506704545,0.285638889 L0,0.587305556 C4.96988068,1.78758333 8.25817045,4.68841667 9.62321023,8.17341667 L8.23422727,1.50980556 C7.99423864,0.59175 7.29877273,0.317583333 6.43848864,0.285638889" id="Fill-8" fill="#F9A51A"></path>
                            </g>
                        </g>
                    </g>
                </g>
            </g>
        </g>
    </g>
</svg>